<svg width="318" height="308" viewBox="0 0 318 308" fill="none" xmlns="http://www.w3.org/2000/svg">
<path d="M36.5 39L31.5 34L36.5 29" stroke="#B8B5EC" stroke-width="2" stroke-linecap="round" stroke-linejoin="round"/>
<path d="M170.205 40V38.9773L174.045 34.7727C174.496 34.2803 174.867 33.8523 175.159 33.4886C175.451 33.1212 175.667 32.7765 175.807 32.4545C175.951 32.1288 176.023 31.7879 176.023 31.4318C176.023 31.0227 175.924 30.6686 175.727 30.3693C175.534 30.0701 175.269 29.839 174.932 29.6761C174.595 29.5133 174.216 29.4318 173.795 29.4318C173.348 29.4318 172.958 29.5246 172.625 29.7102C172.295 29.892 172.04 30.1477 171.858 30.4773C171.68 30.8068 171.591 31.1932 171.591 31.6364H170.25C170.25 30.9545 170.407 30.3561 170.722 29.8409C171.036 29.3258 171.464 28.9242 172.006 28.6364C172.551 28.3485 173.163 28.2045 173.841 28.2045C174.523 28.2045 175.127 28.3485 175.653 28.6364C176.18 28.9242 176.593 29.3125 176.892 29.8011C177.191 30.2898 177.341 30.8333 177.341 31.4318C177.341 31.8598 177.263 32.2784 177.108 32.6875C176.956 33.0928 176.691 33.5455 176.312 34.0455C175.938 34.5417 175.417 35.1477 174.75 35.8636L172.136 38.6591V38.75H177.545V40H170.205ZM183.688 40.1591C182.831 40.1591 182.102 39.9261 181.5 39.4602C180.898 38.9905 180.438 38.3106 180.119 37.4205C179.801 36.5265 179.642 35.447 179.642 34.1818C179.642 32.9242 179.801 31.8504 180.119 30.9602C180.441 30.0663 180.903 29.3845 181.506 28.9148C182.112 28.4413 182.839 28.2045 183.688 28.2045C184.536 28.2045 185.261 28.4413 185.864 28.9148C186.47 29.3845 186.932 30.0663 187.25 30.9602C187.572 31.8504 187.733 32.9242 187.733 34.1818C187.733 35.447 187.574 36.5265 187.256 37.4205C186.938 38.3106 186.477 38.9905 185.875 39.4602C185.273 39.9261 184.544 40.1591 183.688 40.1591ZM183.688 38.9091C184.536 38.9091 185.195 38.5 185.665 37.6818C186.134 36.8636 186.369 35.697 186.369 34.1818C186.369 33.1742 186.261 32.3163 186.045 31.608C185.833 30.8996 185.527 30.3598 185.125 29.9886C184.727 29.6174 184.248 29.4318 183.688 29.4318C182.847 29.4318 182.189 29.8466 181.716 30.6761C181.242 31.5019 181.006 32.6705 181.006 34.1818C181.006 35.1894 181.112 36.0455 181.324 36.75C181.536 37.4545 181.841 37.9905 182.239 38.358C182.64 38.7254 183.123 38.9091 183.688 38.9091ZM189.892 40V38.9773L193.733 34.7727C194.184 34.2803 194.555 33.8523 194.847 33.4886C195.138 33.1212 195.354 32.7765 195.494 32.4545C195.638 32.1288 195.71 31.7879 195.71 31.4318C195.71 31.0227 195.612 30.6686 195.415 30.3693C195.222 30.0701 194.956 29.839 194.619 29.6761C194.282 29.5133 193.903 29.4318 193.483 29.4318C193.036 29.4318 192.646 29.5246 192.312 29.7102C191.983 29.892 191.727 30.1477 191.545 30.4773C191.367 30.8068 191.278 31.1932 191.278 31.6364H189.938C189.938 30.9545 190.095 30.3561 190.409 29.8409C190.723 29.3258 191.152 28.9242 191.693 28.6364C192.239 28.3485 192.85 28.2045 193.528 28.2045C194.21 28.2045 194.814 28.3485 195.341 28.6364C195.867 28.9242 196.28 29.3125 196.58 29.8011C196.879 30.2898 197.028 30.8333 197.028 31.4318C197.028 31.8598 196.951 32.2784 196.795 32.6875C196.644 33.0928 196.379 33.5455 196 34.0455C195.625 34.5417 195.104 35.1477 194.438 35.8636L191.824 38.6591V38.75H197.233V40H189.892ZM203.443 40.1591C202.966 40.1515 202.489 40.0606 202.011 39.8864C201.534 39.7121 201.098 39.4186 200.705 39.0057C200.311 38.589 199.994 38.0265 199.756 37.3182C199.517 36.6061 199.398 35.7121 199.398 34.6364C199.398 33.6061 199.494 32.6932 199.688 31.8977C199.881 31.0985 200.161 30.4261 200.528 29.8807C200.896 29.3314 201.339 28.9148 201.858 28.6307C202.381 28.3466 202.97 28.2045 203.625 28.2045C204.277 28.2045 204.856 28.3352 205.364 28.5966C205.875 28.8542 206.292 29.214 206.614 29.6761C206.936 30.1383 207.144 30.6705 207.239 31.2727H205.852C205.723 30.75 205.473 30.3163 205.102 29.9716C204.731 29.6269 204.239 29.4545 203.625 29.4545C202.723 29.4545 202.013 29.8466 201.494 30.6307C200.979 31.4148 200.72 32.5152 200.716 33.9318H200.807C201.019 33.6098 201.271 33.3352 201.562 33.108C201.858 32.8769 202.184 32.6989 202.54 32.5739C202.896 32.4489 203.273 32.3864 203.67 32.3864C204.337 32.3864 204.947 32.553 205.5 32.8864C206.053 33.2159 206.496 33.6723 206.83 34.2557C207.163 34.8352 207.33 35.5 207.33 36.25C207.33 36.9697 207.169 37.6288 206.847 38.2273C206.525 38.822 206.072 39.2955 205.489 39.6477C204.909 39.9962 204.227 40.1667 203.443 40.1591ZM203.443 38.9091C203.92 38.9091 204.348 38.7898 204.727 38.5511C205.11 38.3125 205.411 37.9924 205.631 37.5909C205.854 37.1894 205.966 36.7424 205.966 36.25C205.966 35.7689 205.858 35.3314 205.642 34.9375C205.43 34.5398 205.136 34.2235 204.761 33.9886C204.39 33.7538 203.966 33.6364 203.489 33.6364C203.129 33.6364 202.794 33.7083 202.483 33.8523C202.172 33.9924 201.9 34.1856 201.665 34.4318C201.434 34.678 201.252 34.9602 201.119 35.2784C200.987 35.5928 200.92 35.9242 200.92 36.2727C200.92 36.7348 201.028 37.1667 201.244 37.5682C201.464 37.9697 201.763 38.2936 202.142 38.5398C202.525 38.786 202.958 38.9091 203.443 38.9091Z" fill="white"/>
<path d="M232 32L236 36L240 32" stroke="#B8B5EC" stroke-width="1.6" stroke-linecap="round" stroke-linejoin="round"/>
<path d="M75.4091 40V28.3636H82.3864V29.6136H76.8182V33.5455H81.8636V34.7955H76.8182V40H75.4091ZM87.6364 40.1818C86.7955 40.1818 86.0701 39.9962 85.4602 39.625C84.8542 39.25 84.3864 38.7273 84.0568 38.0568C83.7311 37.3826 83.5682 36.5985 83.5682 35.7045C83.5682 34.8106 83.7311 34.0227 84.0568 33.3409C84.3864 32.6553 84.8447 32.1212 85.4318 31.7386C86.0227 31.3523 86.7121 31.1591 87.5 31.1591C87.9545 31.1591 88.4034 31.2348 88.8466 31.3864C89.2898 31.5379 89.6932 31.7841 90.0568 32.125C90.4205 32.4621 90.7102 32.9091 90.9261 33.4659C91.142 34.0227 91.25 34.7083 91.25 35.5227V36.0909H84.5227V34.9318H89.8864C89.8864 34.4394 89.7879 34 89.5909 33.6136C89.3977 33.2273 89.1212 32.9223 88.7614 32.6989C88.4053 32.4754 87.9848 32.3636 87.5 32.3636C86.9659 32.3636 86.5038 32.4962 86.1136 32.7614C85.7273 33.0227 85.4299 33.3636 85.2216 33.7841C85.0133 34.2045 84.9091 34.6553 84.9091 35.1364V35.9091C84.9091 36.5682 85.0227 37.1269 85.25 37.5852C85.4811 38.0398 85.8011 38.3864 86.2102 38.625C86.6193 38.8598 87.0947 38.9773 87.6364 38.9773C87.9886 38.9773 88.3068 38.928 88.5909 38.8295C88.8788 38.7273 89.1269 38.5758 89.3352 38.375C89.5436 38.1705 89.7045 37.9167 89.8182 37.6136L91.1136 37.9773C90.9773 38.4167 90.7481 38.803 90.4261 39.1364C90.1042 39.4659 89.7064 39.7235 89.233 39.9091C88.7595 40.0909 88.2273 40.1818 87.6364 40.1818ZM93.4716 40V28.3636H94.8125V32.6591H94.9261C95.0246 32.5076 95.161 32.3144 95.3352 32.0795C95.5133 31.8409 95.767 31.6288 96.0966 31.4432C96.4299 31.2538 96.8807 31.1591 97.4489 31.1591C98.1837 31.1591 98.8314 31.3428 99.392 31.7102C99.9527 32.0777 100.39 32.5985 100.705 33.2727C101.019 33.947 101.176 34.7424 101.176 35.6591C101.176 36.5833 101.019 37.3845 100.705 38.0625C100.39 38.7367 99.9545 39.2595 99.3977 39.6307C98.8409 39.9981 98.1989 40.1818 97.4716 40.1818C96.911 40.1818 96.4621 40.089 96.125 39.9034C95.7879 39.714 95.5284 39.5 95.3466 39.2614C95.1648 39.0189 95.0246 38.8182 94.9261 38.6591H94.767V40H93.4716ZM94.7898 35.6364C94.7898 36.2955 94.8864 36.8769 95.0795 37.3807C95.2727 37.8807 95.5549 38.2727 95.9261 38.5568C96.2973 38.8371 96.7519 38.9773 97.2898 38.9773C97.8504 38.9773 98.3182 38.8295 98.6932 38.5341C99.072 38.2348 99.3561 37.8333 99.5455 37.3295C99.7386 36.822 99.8352 36.2576 99.8352 35.6364C99.8352 35.0227 99.7405 34.4697 99.5511 33.9773C99.3655 33.4811 99.0833 33.089 98.7045 32.8011C98.3295 32.5095 97.858 32.3636 97.2898 32.3636C96.7443 32.3636 96.286 32.5019 95.9148 32.7784C95.5436 33.0511 95.2633 33.4337 95.0739 33.9261C94.8845 34.4148 94.7898 34.9848 94.7898 35.6364Z" fill="white"/>
<path d="M137 32L141 36L145 32" stroke="#B8B5EC" stroke-width="1.6" stroke-linecap="round" stroke-linejoin="round"/>
<path d="M281.5 39L286.5 34L281.5 29" stroke="#B8B5EC" stroke-width="2" stroke-linecap="round" stroke-linejoin="round"/>
<path d="M24.1899 82V73.48H26.8299C28.1419 73.48 29.1499 73.852 29.8539 74.596C30.5659 75.332 30.9219 76.384 30.9219 77.752C30.9219 79.112 30.5739 80.16 29.8779 80.896C29.1819 81.632 28.1899 82 26.9019 82H24.1899ZM25.2219 80.992H26.8299C27.8299 80.992 28.5819 80.724 29.0859 80.188C29.5899 79.644 29.8419 78.832 29.8419 77.752C29.8419 76.656 29.5899 75.84 29.0859 75.304C28.5819 74.76 27.8299 74.488 26.8299 74.488H25.2219V80.992ZM35.0729 82.144C34.4889 82.144 33.9769 82.008 33.5369 81.736C33.0969 81.464 32.7569 81.08 32.5169 80.584C32.2769 80.08 32.1569 79.492 32.1569 78.82C32.1569 78.14 32.2769 77.552 32.5169 77.056C32.7569 76.56 33.0969 76.176 33.5369 75.904C33.9769 75.632 34.4889 75.496 35.0729 75.496C35.6569 75.496 36.1649 75.632 36.5969 75.904C37.0369 76.176 37.3769 76.56 37.6169 77.056C37.8569 77.552 37.9769 78.14 37.9769 78.82C37.9769 79.492 37.8569 80.08 37.6169 80.584C37.3769 81.08 37.0369 81.464 36.5969 81.736C36.1649 82.008 35.6569 82.144 35.0729 82.144ZM35.0729 81.184C35.6569 81.184 36.1089 80.976 36.4289 80.56C36.7569 80.136 36.9209 79.556 36.9209 78.82C36.9209 78.084 36.7569 77.508 36.4289 77.092C36.1089 76.668 35.6569 76.456 35.0729 76.456C34.4889 76.456 34.0329 76.668 33.7049 77.092C33.3769 77.508 33.2129 78.084 33.2129 78.82C33.2129 79.556 33.3769 80.136 33.7049 80.56C34.0329 80.976 34.4889 81.184 35.0729 81.184ZM39.3506 82V75.64H40.2746L40.3106 77.248L40.1666 77.2C40.2386 76.848 40.3626 76.548 40.5386 76.3C40.7226 76.044 40.9466 75.848 41.2106 75.712C41.4746 75.568 41.7666 75.496 42.0866 75.496C42.6386 75.496 43.0866 75.648 43.4306 75.952C43.7826 76.256 44.0026 76.68 44.0906 77.224L43.8986 77.212C43.9626 76.844 44.0786 76.536 44.2466 76.288C44.4226 76.032 44.6466 75.836 44.9186 75.7C45.1906 75.564 45.5026 75.496 45.8546 75.496C46.3106 75.496 46.6946 75.592 47.0066 75.784C47.3186 75.968 47.5546 76.24 47.7146 76.6C47.8746 76.96 47.9546 77.396 47.9546 77.908V82H46.9466V78.124C46.9466 77.548 46.8346 77.116 46.6106 76.828C46.3866 76.532 46.0546 76.384 45.6146 76.384C45.3186 76.384 45.0586 76.456 44.8346 76.6C44.6186 76.744 44.4506 76.952 44.3306 77.224C44.2106 77.488 44.1506 77.812 44.1506 78.196V82H43.1426V78.196C43.1426 77.628 43.0426 77.184 42.8426 76.864C42.6426 76.544 42.3066 76.384 41.8346 76.384C41.5386 76.384 41.2786 76.456 41.0546 76.6C40.8386 76.744 40.6666 76.952 40.5386 77.224C40.4186 77.496 40.3586 77.82 40.3586 78.196V82H39.3506Z" fill="white"/>
<path d="M67.9263 82V73.48H68.9583V81.52L68.4423 80.992H73.2183V82H67.9263ZM76.3507 82.144C75.7187 82.144 75.2107 81.932 74.8267 81.508C74.4507 81.076 74.2627 80.484 74.2627 79.732V75.64H75.2707V79.456C75.2707 80.072 75.3787 80.528 75.5947 80.824C75.8187 81.112 76.1587 81.256 76.6147 81.256C77.1187 81.256 77.5147 81.096 77.8027 80.776C78.0907 80.448 78.2347 80 78.2347 79.432V75.64H79.2427V82H78.2827V80.428L78.4387 80.512C78.3107 81.032 78.0667 81.436 77.7067 81.724C77.3467 82.004 76.8947 82.144 76.3507 82.144ZM81.1651 82V75.64H82.0891L82.1251 77.26L82.0051 77.152C82.0851 76.776 82.2251 76.468 82.4251 76.228C82.6251 75.98 82.8651 75.796 83.1451 75.676C83.4331 75.556 83.7411 75.496 84.0691 75.496C84.5571 75.496 84.9571 75.604 85.2691 75.82C85.5891 76.036 85.8251 76.328 85.9771 76.696C86.1371 77.056 86.2171 77.46 86.2171 77.908V82H85.2091V78.196C85.2091 77.804 85.1611 77.476 85.0651 77.212C84.9771 76.94 84.8331 76.736 84.6331 76.6C84.4331 76.456 84.1731 76.384 83.8531 76.384C83.3651 76.384 82.9611 76.54 82.6411 76.852C82.3291 77.156 82.1731 77.604 82.1731 78.196V82H81.1651Z" fill="white"/>
<path d="M108.346 82V73.48H109.786L112.51 80.872L115.222 73.48H116.662V82H115.63V75.4L113.194 82H111.814L109.378 75.4V82H108.346ZM120.324 82.144C119.668 82.144 119.144 81.992 118.752 81.688C118.368 81.384 118.176 80.96 118.176 80.416C118.176 79.872 118.336 79.444 118.656 79.132C118.976 78.82 119.484 78.6 120.18 78.472L122.436 78.052C122.436 77.516 122.308 77.116 122.052 76.852C121.804 76.588 121.428 76.456 120.924 76.456C120.484 76.456 120.136 76.556 119.88 76.756C119.624 76.948 119.448 77.228 119.352 77.596L118.284 77.512C118.404 76.912 118.692 76.428 119.148 76.06C119.612 75.684 120.204 75.496 120.924 75.496C121.74 75.496 122.364 75.728 122.796 76.192C123.228 76.648 123.444 77.28 123.444 78.088V80.716C123.444 80.86 123.468 80.964 123.516 81.028C123.572 81.084 123.66 81.112 123.78 81.112H124.032V82C124 82.008 123.948 82.012 123.876 82.012C123.804 82.02 123.728 82.024 123.648 82.024C123.36 82.024 123.124 81.98 122.94 81.892C122.764 81.796 122.636 81.652 122.556 81.46C122.476 81.26 122.436 81 122.436 80.68L122.556 80.704C122.5 80.976 122.364 81.224 122.148 81.448C121.932 81.664 121.664 81.836 121.344 81.964C121.024 82.084 120.684 82.144 120.324 82.144ZM120.42 81.256C120.844 81.256 121.204 81.176 121.5 81.016C121.804 80.848 122.036 80.624 122.196 80.344C122.356 80.056 122.436 79.736 122.436 79.384V78.928L120.372 79.312C119.94 79.392 119.64 79.516 119.472 79.684C119.312 79.844 119.232 80.056 119.232 80.32C119.232 80.616 119.336 80.848 119.544 81.016C119.76 81.176 120.052 81.256 120.42 81.256ZM125.171 82V75.64H126.059L126.107 77.248L126.011 77.212C126.091 76.668 126.263 76.272 126.527 76.024C126.799 75.768 127.159 75.64 127.607 75.64H128.231V76.6H127.619C127.299 76.6 127.031 76.66 126.815 76.78C126.607 76.892 126.447 77.064 126.335 77.296C126.231 77.52 126.179 77.808 126.179 78.16V82H125.171Z" fill="white"/>
<path d="M150.19 82V73.48H151.63L154.354 80.872L157.066 73.48H158.506V82H157.474V75.4L155.038 82H153.658L151.222 75.4V82H150.19ZM160.335 82V75.64H161.343V82H160.335ZM160.311 74.644V73.468H161.367V74.644H160.311ZM165.632 82.144C165.032 82.144 164.512 82.008 164.072 81.736C163.64 81.464 163.304 81.08 163.064 80.584C162.832 80.08 162.716 79.492 162.716 78.82C162.716 78.148 162.832 77.564 163.064 77.068C163.304 76.572 163.636 76.188 164.06 75.916C164.492 75.636 165 75.496 165.584 75.496C166.136 75.496 166.624 75.628 167.048 75.892C167.472 76.148 167.8 76.524 168.032 77.02C168.272 77.516 168.392 78.12 168.392 78.832V79.132H163.771C163.812 79.812 163.992 80.324 164.312 80.668C164.64 81.012 165.08 81.184 165.632 81.184C166.048 81.184 166.388 81.088 166.652 80.896C166.924 80.696 167.112 80.436 167.216 80.116L168.296 80.2C168.128 80.768 167.808 81.236 167.336 81.604C166.872 81.964 166.304 82.144 165.632 82.144ZM163.771 78.244H167.288C167.24 77.628 167.06 77.176 166.748 76.888C166.444 76.6 166.056 76.456 165.584 76.456C165.096 76.456 164.692 76.608 164.372 76.912C164.06 77.208 163.86 77.652 163.771 78.244Z" fill="white"/>
<path d="M193.18 82.192C192.652 82.192 192.184 82.068 191.776 81.82C191.368 81.564 191.048 81.212 190.816 80.764C190.592 80.316 190.476 79.8 190.468 79.216L191.524 79.144C191.532 79.8 191.68 80.304 191.968 80.656C192.256 81.008 192.66 81.184 193.18 81.184C193.724 81.184 194.14 80.996 194.428 80.62C194.724 80.244 194.872 79.712 194.872 79.024V73.48H195.904V79.024C195.904 79.672 195.792 80.236 195.568 80.716C195.344 81.188 195.028 81.552 194.62 81.808C194.22 82.064 193.74 82.192 193.18 82.192ZM199.872 82.144C199.24 82.144 198.732 81.932 198.348 81.508C197.972 81.076 197.784 80.484 197.784 79.732V75.64H198.792V79.456C198.792 80.072 198.9 80.528 199.116 80.824C199.34 81.112 199.68 81.256 200.136 81.256C200.64 81.256 201.036 81.096 201.324 80.776C201.612 80.448 201.756 80 201.756 79.432V75.64H202.764V82H201.804V80.428L201.96 80.512C201.832 81.032 201.588 81.436 201.228 81.724C200.868 82.004 200.416 82.144 199.872 82.144ZM207.053 82.144C206.453 82.144 205.933 82.008 205.493 81.736C205.061 81.464 204.725 81.08 204.485 80.584C204.253 80.08 204.137 79.492 204.137 78.82C204.137 78.148 204.253 77.564 204.485 77.068C204.725 76.572 205.057 76.188 205.481 75.916C205.913 75.636 206.421 75.496 207.005 75.496C207.557 75.496 208.045 75.628 208.469 75.892C208.893 76.148 209.221 76.524 209.453 77.02C209.693 77.516 209.813 78.12 209.813 78.832V79.132H205.193C205.233 79.812 205.413 80.324 205.733 80.668C206.061 81.012 206.501 81.184 207.053 81.184C207.469 81.184 207.809 81.088 208.073 80.896C208.345 80.696 208.533 80.436 208.637 80.116L209.717 80.2C209.549 80.768 209.229 81.236 208.757 81.604C208.293 81.964 207.725 82.144 207.053 82.144ZM205.193 78.244H208.709C208.661 77.628 208.481 77.176 208.169 76.888C207.865 76.6 207.477 76.456 207.005 76.456C206.517 76.456 206.113 76.608 205.793 76.912C205.481 77.208 205.281 77.652 205.193 78.244Z" fill="white"/>
<path d="M235.687 82L232.603 73.48H233.731L236.371 80.872L238.999 73.48H240.127L237.043 82H235.687ZM241.058 82V75.64H242.066V82H241.058ZM241.034 74.644V73.468H242.09V74.644H241.034ZM246.354 82.144C245.754 82.144 245.234 82.008 244.794 81.736C244.362 81.464 244.026 81.08 243.786 80.584C243.554 80.08 243.438 79.492 243.438 78.82C243.438 78.148 243.554 77.564 243.786 77.068C244.026 76.572 244.358 76.188 244.782 75.916C245.214 75.636 245.722 75.496 246.306 75.496C246.858 75.496 247.346 75.628 247.77 75.892C248.194 76.148 248.522 76.524 248.754 77.02C248.994 77.516 249.114 78.12 249.114 78.832V79.132H244.494C244.534 79.812 244.714 80.324 245.034 80.668C245.362 81.012 245.802 81.184 246.354 81.184C246.77 81.184 247.11 81.088 247.374 80.896C247.646 80.696 247.834 80.436 247.938 80.116L249.018 80.2C248.85 80.768 248.53 81.236 248.058 81.604C247.594 81.964 247.026 82.144 246.354 82.144ZM244.494 78.244H248.01C247.962 77.628 247.782 77.176 247.47 76.888C247.166 76.6 246.778 76.456 246.306 76.456C245.818 76.456 245.414 76.608 245.094 76.912C244.782 77.208 244.582 77.652 244.494 78.244Z" fill="white"/>
<path d="M275.309 82.192C274.653 82.192 274.081 82.068 273.593 81.82C273.105 81.572 272.717 81.232 272.429 80.8C272.149 80.36 271.985 79.852 271.937 79.276L273.017 79.204C273.073 79.628 273.197 79.988 273.389 80.284C273.581 80.58 273.837 80.804 274.157 80.956C274.485 81.108 274.877 81.184 275.333 81.184C275.733 81.184 276.073 81.132 276.353 81.028C276.633 80.924 276.845 80.772 276.989 80.572C277.141 80.372 277.217 80.128 277.217 79.84C277.217 79.576 277.153 79.344 277.025 79.144C276.905 78.936 276.669 78.748 276.317 78.58C275.973 78.404 275.461 78.232 274.781 78.064C274.125 77.896 273.601 77.712 273.209 77.512C272.825 77.312 272.545 77.068 272.369 76.78C272.201 76.492 272.117 76.136 272.117 75.712C272.117 75.232 272.229 74.812 272.453 74.452C272.685 74.084 273.013 73.8 273.437 73.6C273.861 73.392 274.365 73.288 274.949 73.288C275.573 73.288 276.109 73.408 276.557 73.648C277.005 73.88 277.361 74.2 277.625 74.608C277.889 75.016 278.053 75.48 278.117 76L277.037 76.072C276.989 75.728 276.877 75.424 276.701 75.16C276.533 74.888 276.301 74.676 276.005 74.524C275.709 74.372 275.349 74.296 274.925 74.296C274.397 74.296 273.977 74.424 273.665 74.68C273.353 74.928 273.197 75.256 273.197 75.664C273.197 75.928 273.257 76.148 273.377 76.324C273.505 76.492 273.729 76.644 274.049 76.78C274.369 76.908 274.829 77.048 275.429 77.2C276.141 77.376 276.705 77.588 277.121 77.836C277.545 78.076 277.845 78.356 278.021 78.676C278.205 78.996 278.297 79.36 278.297 79.768C278.297 80.264 278.169 80.696 277.913 81.064C277.657 81.424 277.305 81.704 276.857 81.904C276.409 82.096 275.893 82.192 275.309 82.192ZM281.746 82.144C281.09 82.144 280.566 81.992 280.174 81.688C279.79 81.384 279.598 80.96 279.598 80.416C279.598 79.872 279.758 79.444 280.078 79.132C280.398 78.82 280.906 78.6 281.602 78.472L283.858 78.052C283.858 77.516 283.73 77.116 283.474 76.852C283.226 76.588 282.85 76.456 282.346 76.456C281.906 76.456 281.558 76.556 281.302 76.756C281.046 76.948 280.87 77.228 280.774 77.596L279.706 77.512C279.826 76.912 280.114 76.428 280.57 76.06C281.034 75.684 281.626 75.496 282.346 75.496C283.162 75.496 283.786 75.728 284.218 76.192C284.65 76.648 284.866 77.28 284.866 78.088V80.716C284.866 80.86 284.89 80.964 284.938 81.028C284.994 81.084 285.082 81.112 285.202 81.112H285.454V82C285.422 82.008 285.37 82.012 285.298 82.012C285.226 82.02 285.15 82.024 285.07 82.024C284.782 82.024 284.546 81.98 284.362 81.892C284.186 81.796 284.058 81.652 283.978 81.46C283.898 81.26 283.858 81 283.858 80.68L283.978 80.704C283.922 80.976 283.786 81.224 283.57 81.448C283.354 81.664 283.086 81.836 282.766 81.964C282.446 82.084 282.106 82.144 281.746 82.144ZM281.842 81.256C282.266 81.256 282.626 81.176 282.922 81.016C283.226 80.848 283.458 80.624 283.618 80.344C283.778 80.056 283.858 79.736 283.858 79.384V78.928L281.794 79.312C281.362 79.392 281.062 79.516 280.894 79.684C280.734 79.844 280.654 80.056 280.654 80.32C280.654 80.616 280.758 80.848 280.966 81.016C281.182 81.176 281.474 81.256 281.842 81.256ZM289.462 82.144C289.022 82.144 288.63 82.048 288.286 81.856C287.942 81.656 287.678 81.384 287.494 81.04L287.458 82H286.546V73.48H287.554V76.528C287.714 76.264 287.962 76.028 288.298 75.82C288.634 75.604 289.022 75.496 289.462 75.496C290.022 75.496 290.506 75.632 290.914 75.904C291.322 76.176 291.638 76.56 291.862 77.056C292.086 77.552 292.198 78.14 292.198 78.82C292.198 79.5 292.086 80.088 291.862 80.584C291.638 81.08 291.322 81.464 290.914 81.736C290.506 82.008 290.022 82.144 289.462 82.144ZM289.402 81.184C289.938 81.184 290.362 80.972 290.674 80.548C290.986 80.124 291.142 79.548 291.142 78.82C291.142 78.084 290.986 77.508 290.674 77.092C290.362 76.668 289.946 76.456 289.426 76.456C289.034 76.456 288.698 76.552 288.418 76.744C288.138 76.928 287.922 77.196 287.77 77.548C287.626 77.9 287.554 78.324 287.554 78.82C287.554 79.3 287.626 79.72 287.77 80.08C287.922 80.432 288.134 80.704 288.406 80.896C288.686 81.088 289.018 81.184 289.402 81.184Z" fill="white"/>
<path d="M37.5767 266.364V278H36.1676V267.841H36.0994L33.2585 269.727V268.295L36.1676 266.364H37.5767Z" fill="#A4ADEF"/>
<path d="M73.3608 278V276.977L77.2017 272.773C77.6525 272.28 78.0237 271.852 78.3153 271.489C78.607 271.121 78.8229 270.777 78.9631 270.455C79.107 270.129 79.179 269.788 79.179 269.432C79.179 269.023 79.0805 268.669 78.8835 268.369C78.6903 268.07 78.4252 267.839 78.0881 267.676C77.7509 267.513 77.3722 267.432 76.9517 267.432C76.5047 267.432 76.1146 267.525 75.7812 267.71C75.4517 267.892 75.196 268.148 75.0142 268.477C74.8362 268.807 74.7472 269.193 74.7472 269.636H73.4062C73.4062 268.955 73.5634 268.356 73.8778 267.841C74.1922 267.326 74.6203 266.924 75.1619 266.636C75.7074 266.348 76.3191 266.205 76.9972 266.205C77.679 266.205 78.2831 266.348 78.8097 266.636C79.3362 266.924 79.7491 267.312 80.0483 267.801C80.3475 268.29 80.4972 268.833 80.4972 269.432C80.4972 269.86 80.4195 270.278 80.2642 270.688C80.1127 271.093 79.8475 271.545 79.4688 272.045C79.0938 272.542 78.5729 273.148 77.9062 273.864L75.2926 276.659V276.75H80.7017V278H73.3608Z" fill="#A4ADEF"/>
<path d="M118.043 278.159C117.293 278.159 116.624 278.03 116.037 277.773C115.454 277.515 114.99 277.157 114.645 276.699C114.304 276.237 114.118 275.701 114.088 275.091H115.52C115.55 275.466 115.679 275.79 115.906 276.062C116.134 276.331 116.431 276.54 116.798 276.688C117.166 276.835 117.573 276.909 118.02 276.909C118.52 276.909 118.963 276.822 119.349 276.648C119.736 276.473 120.039 276.231 120.259 275.92C120.478 275.61 120.588 275.25 120.588 274.841C120.588 274.413 120.482 274.036 120.27 273.71C120.058 273.381 119.747 273.123 119.338 272.938C118.929 272.752 118.429 272.659 117.838 272.659H116.906V271.409H117.838C118.3 271.409 118.705 271.326 119.054 271.159C119.406 270.992 119.681 270.758 119.878 270.455C120.079 270.152 120.179 269.795 120.179 269.386C120.179 268.992 120.092 268.65 119.918 268.358C119.743 268.066 119.497 267.839 119.179 267.676C118.865 267.513 118.493 267.432 118.065 267.432C117.664 267.432 117.285 267.506 116.929 267.653C116.577 267.797 116.289 268.008 116.065 268.284C115.842 268.557 115.721 268.886 115.702 269.273H114.338C114.361 268.663 114.545 268.129 114.889 267.67C115.234 267.208 115.685 266.848 116.241 266.591C116.802 266.333 117.418 266.205 118.088 266.205C118.808 266.205 119.425 266.35 119.94 266.642C120.455 266.93 120.851 267.311 121.128 267.784C121.404 268.258 121.543 268.769 121.543 269.318C121.543 269.973 121.37 270.532 121.026 270.994C120.685 271.456 120.221 271.777 119.634 271.955V272.045C120.368 272.167 120.942 272.479 121.355 272.983C121.768 273.483 121.974 274.102 121.974 274.841C121.974 275.473 121.802 276.042 121.457 276.545C121.116 277.045 120.651 277.439 120.06 277.727C119.469 278.015 118.796 278.159 118.043 278.159Z" fill="#A4ADEF"/>
<path d="M154.799 275.614V274.455L159.913 266.364H160.754V268.159H160.185L156.322 274.273V274.364H163.208V275.614H154.799ZM160.276 278V275.261V274.722V266.364H161.617V278H160.276Z" fill="#A4ADEF"/>
<path d="M199.974 278.159C199.307 278.159 198.707 278.027 198.173 277.761C197.638 277.496 197.21 277.133 196.888 276.67C196.567 276.208 196.39 275.682 196.36 275.091H197.724C197.777 275.617 198.015 276.053 198.44 276.398C198.868 276.739 199.379 276.909 199.974 276.909C200.451 276.909 200.875 276.797 201.246 276.574C201.621 276.35 201.915 276.044 202.127 275.653C202.343 275.259 202.451 274.814 202.451 274.318C202.451 273.811 202.339 273.358 202.116 272.96C201.896 272.559 201.593 272.242 201.207 272.011C200.82 271.78 200.379 271.663 199.883 271.659C199.527 271.655 199.161 271.71 198.786 271.824C198.411 271.934 198.103 272.076 197.86 272.25L196.542 272.091L197.246 266.364H203.292V267.614H198.428L198.019 271.045H198.087C198.326 270.856 198.625 270.699 198.985 270.574C199.345 270.449 199.72 270.386 200.11 270.386C200.822 270.386 201.457 270.557 202.013 270.898C202.574 271.235 203.013 271.697 203.332 272.284C203.654 272.871 203.815 273.542 203.815 274.295C203.815 275.038 203.648 275.701 203.315 276.284C202.985 276.864 202.531 277.322 201.951 277.659C201.371 277.992 200.712 278.159 199.974 278.159Z" fill="#A4ADEF"/>
<path d="M241.076 278.159C240.599 278.152 240.121 278.061 239.644 277.886C239.167 277.712 238.731 277.419 238.337 277.006C237.943 276.589 237.627 276.027 237.388 275.318C237.15 274.606 237.031 273.712 237.031 272.636C237.031 271.606 237.127 270.693 237.32 269.898C237.513 269.098 237.794 268.426 238.161 267.881C238.529 267.331 238.972 266.915 239.491 266.631C240.013 266.347 240.603 266.205 241.258 266.205C241.909 266.205 242.489 266.335 242.996 266.597C243.508 266.854 243.924 267.214 244.246 267.676C244.568 268.138 244.777 268.67 244.871 269.273H243.485C243.356 268.75 243.106 268.316 242.735 267.972C242.364 267.627 241.871 267.455 241.258 267.455C240.356 267.455 239.646 267.847 239.127 268.631C238.612 269.415 238.353 270.515 238.349 271.932H238.44C238.652 271.61 238.904 271.335 239.195 271.108C239.491 270.877 239.817 270.699 240.173 270.574C240.529 270.449 240.906 270.386 241.303 270.386C241.97 270.386 242.58 270.553 243.133 270.886C243.686 271.216 244.129 271.672 244.462 272.256C244.796 272.835 244.962 273.5 244.962 274.25C244.962 274.97 244.801 275.629 244.479 276.227C244.157 276.822 243.705 277.295 243.121 277.648C242.542 277.996 241.86 278.167 241.076 278.159ZM241.076 276.909C241.553 276.909 241.981 276.79 242.36 276.551C242.743 276.312 243.044 275.992 243.263 275.591C243.487 275.189 243.599 274.742 243.599 274.25C243.599 273.769 243.491 273.331 243.275 272.938C243.063 272.54 242.769 272.223 242.394 271.989C242.023 271.754 241.599 271.636 241.121 271.636C240.762 271.636 240.426 271.708 240.116 271.852C239.805 271.992 239.532 272.186 239.298 272.432C239.067 272.678 238.885 272.96 238.752 273.278C238.62 273.593 238.553 273.924 238.553 274.273C238.553 274.735 238.661 275.167 238.877 275.568C239.097 275.97 239.396 276.294 239.775 276.54C240.157 276.786 240.591 276.909 241.076 276.909Z" fill="#A4ADEF"/>
<path d="M278.998 278L284.202 267.705V267.614H278.202V266.364H285.657V267.682L280.475 278H278.998Z" fill="#A4ADEF"/>
<path d="M27.517 237V235.977L31.358 231.773C31.8087 231.28 32.1799 230.852 32.4716 230.489C32.7633 230.121 32.9792 229.777 33.1193 229.455C33.2633 229.129 33.3352 228.788 33.3352 228.432C33.3352 228.023 33.2367 227.669 33.0398 227.369C32.8466 227.07 32.5814 226.839 32.2443 226.676C31.9072 226.513 31.5284 226.432 31.108 226.432C30.661 226.432 30.2708 226.525 29.9375 226.71C29.608 226.892 29.3523 227.148 29.1705 227.477C28.9924 227.807 28.9034 228.193 28.9034 228.636H27.5625C27.5625 227.955 27.7197 227.356 28.0341 226.841C28.3485 226.326 28.7765 225.924 29.3182 225.636C29.8636 225.348 30.4754 225.205 31.1534 225.205C31.8352 225.205 32.4394 225.348 32.9659 225.636C33.4924 225.924 33.9053 226.312 34.2045 226.801C34.5038 227.29 34.6534 227.833 34.6534 228.432C34.6534 228.86 34.5758 229.278 34.4205 229.688C34.2689 230.093 34.0038 230.545 33.625 231.045C33.25 231.542 32.7292 232.148 32.0625 232.864L29.4489 235.659V235.75H34.858V237H27.517ZM37.2045 237V235.977L41.0455 231.773C41.4962 231.28 41.8674 230.852 42.1591 230.489C42.4508 230.121 42.6667 229.777 42.8068 229.455C42.9508 229.129 43.0227 228.788 43.0227 228.432C43.0227 228.023 42.9242 227.669 42.7273 227.369C42.5341 227.07 42.2689 226.839 41.9318 226.676C41.5947 226.513 41.2159 226.432 40.7955 226.432C40.3485 226.432 39.9583 226.525 39.625 226.71C39.2955 226.892 39.0398 227.148 38.858 227.477C38.6799 227.807 38.5909 228.193 38.5909 228.636H37.25C37.25 227.955 37.4072 227.356 37.7216 226.841C38.036 226.326 38.464 225.924 39.0057 225.636C39.5511 225.348 40.1629 225.205 40.8409 225.205C41.5227 225.205 42.1269 225.348 42.6534 225.636C43.1799 225.924 43.5928 226.312 43.892 226.801C44.1913 227.29 44.3409 227.833 44.3409 228.432C44.3409 228.86 44.2633 229.278 44.108 229.688C43.9564 230.093 43.6913 230.545 43.3125 231.045C42.9375 231.542 42.4167 232.148 41.75 232.864L39.1364 235.659V235.75H44.5455V237H37.2045Z" fill="white"/>
<path d="M68.267 237V235.977L72.108 231.773C72.5587 231.28 72.9299 230.852 73.2216 230.489C73.5133 230.121 73.7292 229.777 73.8693 229.455C74.0133 229.129 74.0852 228.788 74.0852 228.432C74.0852 228.023 73.9867 227.669 73.7898 227.369C73.5966 227.07 73.3314 226.839 72.9943 226.676C72.6572 226.513 72.2784 226.432 71.858 226.432C71.411 226.432 71.0208 226.525 70.6875 226.71C70.358 226.892 70.1023 227.148 69.9205 227.477C69.7424 227.807 69.6534 228.193 69.6534 228.636H68.3125C68.3125 227.955 68.4697 227.356 68.7841 226.841C69.0985 226.326 69.5265 225.924 70.0682 225.636C70.6136 225.348 71.2254 225.205 71.9034 225.205C72.5852 225.205 73.1894 225.348 73.7159 225.636C74.2424 225.924 74.6553 226.312 74.9545 226.801C75.2538 227.29 75.4034 227.833 75.4034 228.432C75.4034 228.86 75.3258 229.278 75.1705 229.688C75.0189 230.093 74.7538 230.545 74.375 231.045C74 231.542 73.4792 232.148 72.8125 232.864L70.1989 235.659V235.75H75.608V237H68.267ZM81.8864 237.159C81.1364 237.159 80.4678 237.03 79.8807 236.773C79.2973 236.515 78.8333 236.157 78.4886 235.699C78.1477 235.237 77.9621 234.701 77.9318 234.091H79.3636C79.3939 234.466 79.5227 234.79 79.75 235.062C79.9773 235.331 80.2746 235.54 80.642 235.688C81.0095 235.835 81.4167 235.909 81.8636 235.909C82.3636 235.909 82.8068 235.822 83.1932 235.648C83.5795 235.473 83.8826 235.231 84.1023 234.92C84.322 234.61 84.4318 234.25 84.4318 233.841C84.4318 233.413 84.3258 233.036 84.1136 232.71C83.9015 232.381 83.5909 232.123 83.1818 231.938C82.7727 231.752 82.2727 231.659 81.6818 231.659H80.75V230.409H81.6818C82.1439 230.409 82.5492 230.326 82.8977 230.159C83.25 229.992 83.5246 229.758 83.7216 229.455C83.9223 229.152 84.0227 228.795 84.0227 228.386C84.0227 227.992 83.9356 227.65 83.7614 227.358C83.5871 227.066 83.3409 226.839 83.0227 226.676C82.7083 226.513 82.3371 226.432 81.9091 226.432C81.5076 226.432 81.1288 226.506 80.7727 226.653C80.4205 226.797 80.1326 227.008 79.9091 227.284C79.6856 227.557 79.5644 227.886 79.5455 228.273H78.1818C78.2045 227.663 78.3883 227.129 78.733 226.67C79.0777 226.208 79.5284 225.848 80.0852 225.591C80.6458 225.333 81.2614 225.205 81.9318 225.205C82.6515 225.205 83.2689 225.35 83.7841 225.642C84.2992 225.93 84.6951 226.311 84.9716 226.784C85.2481 227.258 85.3864 227.769 85.3864 228.318C85.3864 228.973 85.214 229.532 84.8693 229.994C84.5284 230.456 84.0644 230.777 83.4773 230.955V231.045C84.2121 231.167 84.786 231.479 85.1989 231.983C85.6117 232.483 85.8182 233.102 85.8182 233.841C85.8182 234.473 85.6458 235.042 85.3011 235.545C84.9602 236.045 84.4943 236.439 83.9034 236.727C83.3125 237.015 82.6402 237.159 81.8864 237.159Z" fill="white"/>
<path d="M109.353 237V235.977L113.194 231.773C113.645 231.28 114.016 230.852 114.308 230.489C114.599 230.121 114.815 229.777 114.955 229.455C115.099 229.129 115.171 228.788 115.171 228.432C115.171 228.023 115.073 227.669 114.876 227.369C114.683 227.07 114.417 226.839 114.08 226.676C113.743 226.513 113.364 226.432 112.944 226.432C112.497 226.432 112.107 226.525 111.773 226.71C111.444 226.892 111.188 227.148 111.006 227.477C110.828 227.807 110.739 228.193 110.739 228.636H109.398C109.398 227.955 109.556 227.356 109.87 226.841C110.184 226.326 110.612 225.924 111.154 225.636C111.7 225.348 112.311 225.205 112.989 225.205C113.671 225.205 114.275 225.348 114.802 225.636C115.328 225.924 115.741 226.312 116.04 226.801C116.34 227.29 116.489 227.833 116.489 228.432C116.489 228.86 116.412 229.278 116.256 229.688C116.105 230.093 115.84 230.545 115.461 231.045C115.086 231.542 114.565 232.148 113.898 232.864L111.285 235.659V235.75H116.694V237H109.353ZM118.518 234.614V233.455L123.631 225.364H124.472V227.159H123.904L120.04 233.273V233.364H126.927V234.614H118.518ZM123.995 237V234.261V233.722V225.364H125.336V237H123.995Z" fill="white"/>
<path d="M150.494 237V235.977L154.335 231.773C154.785 231.28 155.156 230.852 155.448 230.489C155.74 230.121 155.956 229.777 156.096 229.455C156.24 229.129 156.312 228.788 156.312 228.432C156.312 228.023 156.213 227.669 156.016 227.369C155.823 227.07 155.558 226.839 155.221 226.676C154.884 226.513 154.505 226.432 154.085 226.432C153.638 226.432 153.247 226.525 152.914 226.71C152.585 226.892 152.329 227.148 152.147 227.477C151.969 227.807 151.88 228.193 151.88 228.636H150.539C150.539 227.955 150.696 227.356 151.011 226.841C151.325 226.326 151.753 225.924 152.295 225.636C152.84 225.348 153.452 225.205 154.13 225.205C154.812 225.205 155.416 225.348 155.942 225.636C156.469 225.924 156.882 226.312 157.181 226.801C157.48 227.29 157.63 227.833 157.63 228.432C157.63 228.86 157.552 229.278 157.397 229.688C157.246 230.093 156.98 230.545 156.602 231.045C156.227 231.542 155.706 232.148 155.039 232.864L152.425 235.659V235.75H157.835V237H150.494ZM163.817 237.159C163.151 237.159 162.55 237.027 162.016 236.761C161.482 236.496 161.054 236.133 160.732 235.67C160.41 235.208 160.234 234.682 160.204 234.091H161.567C161.621 234.617 161.859 235.053 162.283 235.398C162.711 235.739 163.223 235.909 163.817 235.909C164.295 235.909 164.719 235.797 165.09 235.574C165.465 235.35 165.759 235.044 165.971 234.653C166.187 234.259 166.295 233.814 166.295 233.318C166.295 232.811 166.183 232.358 165.96 231.96C165.74 231.559 165.437 231.242 165.05 231.011C164.664 230.78 164.223 230.663 163.727 230.659C163.371 230.655 163.005 230.71 162.63 230.824C162.255 230.934 161.946 231.076 161.704 231.25L160.386 231.091L161.09 225.364H167.136V226.614H162.272L161.863 230.045H161.931C162.17 229.856 162.469 229.699 162.829 229.574C163.189 229.449 163.564 229.386 163.954 229.386C164.666 229.386 165.3 229.557 165.857 229.898C166.418 230.235 166.857 230.697 167.175 231.284C167.497 231.871 167.658 232.542 167.658 233.295C167.658 234.038 167.492 234.701 167.158 235.284C166.829 235.864 166.374 236.322 165.795 236.659C165.215 236.992 164.556 237.159 163.817 237.159Z" fill="white"/>
<path d="M191.369 237V235.977L195.21 231.773C195.66 231.28 196.031 230.852 196.323 230.489C196.615 230.121 196.831 229.777 196.971 229.455C197.115 229.129 197.187 228.788 197.187 228.432C197.187 228.023 197.088 227.669 196.891 227.369C196.698 227.07 196.433 226.839 196.096 226.676C195.759 226.513 195.38 226.432 194.96 226.432C194.513 226.432 194.122 226.525 193.789 226.71C193.46 226.892 193.204 227.148 193.022 227.477C192.844 227.807 192.755 228.193 192.755 228.636H191.414C191.414 227.955 191.571 227.356 191.886 226.841C192.2 226.326 192.628 225.924 193.17 225.636C193.715 225.348 194.327 225.205 195.005 225.205C195.687 225.205 196.291 225.348 196.817 225.636C197.344 225.924 197.757 226.312 198.056 226.801C198.355 227.29 198.505 227.833 198.505 228.432C198.505 228.86 198.427 229.278 198.272 229.688C198.121 230.093 197.855 230.545 197.477 231.045C197.102 231.542 196.581 232.148 195.914 232.864L193.3 235.659V235.75H198.71V237H191.369ZM204.92 237.159C204.442 237.152 203.965 237.061 203.488 236.886C203.011 236.712 202.575 236.419 202.181 236.006C201.787 235.589 201.471 235.027 201.232 234.318C200.994 233.606 200.874 232.712 200.874 231.636C200.874 230.606 200.971 229.693 201.164 228.898C201.357 228.098 201.638 227.426 202.005 226.881C202.372 226.331 202.816 225.915 203.335 225.631C203.857 225.347 204.446 225.205 205.102 225.205C205.753 225.205 206.333 225.335 206.84 225.597C207.352 225.854 207.768 226.214 208.09 226.676C208.412 227.138 208.621 227.67 208.715 228.273H207.329C207.2 227.75 206.95 227.316 206.579 226.972C206.208 226.627 205.715 226.455 205.102 226.455C204.2 226.455 203.49 226.847 202.971 227.631C202.456 228.415 202.196 229.515 202.192 230.932H202.283C202.496 230.61 202.747 230.335 203.039 230.108C203.335 229.877 203.66 229.699 204.016 229.574C204.372 229.449 204.749 229.386 205.147 229.386C205.814 229.386 206.424 229.553 206.977 229.886C207.53 230.216 207.973 230.672 208.306 231.256C208.639 231.835 208.806 232.5 208.806 233.25C208.806 233.97 208.645 234.629 208.323 235.227C208.001 235.822 207.549 236.295 206.965 236.648C206.386 236.996 205.704 237.167 204.92 237.159ZM204.92 235.909C205.397 235.909 205.825 235.79 206.204 235.551C206.586 235.312 206.888 234.992 207.107 234.591C207.331 234.189 207.442 233.742 207.442 233.25C207.442 232.769 207.335 232.331 207.119 231.938C206.906 231.54 206.613 231.223 206.238 230.989C205.867 230.754 205.442 230.636 204.965 230.636C204.605 230.636 204.27 230.708 203.96 230.852C203.649 230.992 203.376 231.186 203.141 231.432C202.91 231.678 202.728 231.96 202.596 232.278C202.463 232.593 202.397 232.924 202.397 233.273C202.397 233.735 202.505 234.167 202.721 234.568C202.941 234.97 203.24 235.294 203.619 235.54C204.001 235.786 204.435 235.909 204.92 235.909Z" fill="white"/>
<path d="M232.79 237V235.977L236.631 231.773C237.082 231.28 237.453 230.852 237.745 230.489C238.037 230.121 238.253 229.777 238.393 229.455C238.537 229.129 238.609 228.788 238.609 228.432C238.609 228.023 238.51 227.669 238.313 227.369C238.12 227.07 237.855 226.839 237.518 226.676C237.181 226.513 236.802 226.432 236.381 226.432C235.934 226.432 235.544 226.525 235.211 226.71C234.881 226.892 234.626 227.148 234.444 227.477C234.266 227.807 234.177 228.193 234.177 228.636H232.836C232.836 227.955 232.993 227.356 233.308 226.841C233.622 226.326 234.05 225.924 234.592 225.636C235.137 225.348 235.749 225.205 236.427 225.205C237.109 225.205 237.713 225.348 238.239 225.636C238.766 225.924 239.179 226.312 239.478 226.801C239.777 227.29 239.927 227.833 239.927 228.432C239.927 228.86 239.849 229.278 239.694 229.688C239.542 230.093 239.277 230.545 238.898 231.045C238.523 231.542 238.003 232.148 237.336 232.864L234.722 235.659V235.75H240.131V237H232.79ZM242.842 237L248.046 226.705V226.614H242.046V225.364H249.501V226.682L244.319 237H242.842Z" fill="white"/>
<path d="M273.431 237V235.977L277.272 231.773C277.723 231.28 278.094 230.852 278.386 230.489C278.677 230.121 278.893 229.777 279.033 229.455C279.177 229.129 279.249 228.788 279.249 228.432C279.249 228.023 279.151 227.669 278.954 227.369C278.761 227.07 278.496 226.839 278.158 226.676C277.821 226.513 277.442 226.432 277.022 226.432C276.575 226.432 276.185 226.525 275.852 226.71C275.522 226.892 275.266 227.148 275.085 227.477C274.906 227.807 274.817 228.193 274.817 228.636H273.477C273.477 227.955 273.634 227.356 273.948 226.841C274.263 226.326 274.691 225.924 275.232 225.636C275.778 225.348 276.389 225.205 277.067 225.205C277.749 225.205 278.353 225.348 278.88 225.636C279.406 225.924 279.819 226.312 280.119 226.801C280.418 227.29 280.567 227.833 280.567 228.432C280.567 228.86 280.49 229.278 280.335 229.688C280.183 230.093 279.918 230.545 279.539 231.045C279.164 231.542 278.643 232.148 277.977 232.864L275.363 235.659V235.75H280.772V237H273.431ZM286.846 237.159C286.066 237.159 285.376 237.021 284.778 236.744C284.183 236.464 283.719 236.08 283.386 235.591C283.052 235.098 282.888 234.538 282.891 233.909C282.888 233.417 282.984 232.962 283.181 232.545C283.378 232.125 283.647 231.775 283.988 231.494C284.333 231.21 284.717 231.03 285.141 230.955V230.886C284.585 230.742 284.141 230.43 283.812 229.949C283.482 229.464 283.319 228.913 283.323 228.295C283.319 227.705 283.469 227.176 283.772 226.71C284.075 226.244 284.492 225.877 285.022 225.608C285.556 225.339 286.164 225.205 286.846 225.205C287.52 225.205 288.122 225.339 288.653 225.608C289.183 225.877 289.6 226.244 289.903 226.71C290.21 227.176 290.365 227.705 290.369 228.295C290.365 228.913 290.196 229.464 289.863 229.949C289.533 230.43 289.096 230.742 288.55 230.886V230.955C288.971 231.03 289.35 231.21 289.687 231.494C290.024 231.775 290.293 232.125 290.494 232.545C290.694 232.962 290.797 233.417 290.8 233.909C290.797 234.538 290.626 235.098 290.289 235.591C289.956 236.08 289.492 236.464 288.897 236.744C288.306 237.021 287.622 237.159 286.846 237.159ZM286.846 235.909C287.372 235.909 287.827 235.824 288.21 235.653C288.592 235.483 288.888 235.242 289.096 234.932C289.304 234.621 289.41 234.258 289.414 233.841C289.41 233.402 289.297 233.013 289.073 232.676C288.85 232.339 288.545 232.074 288.158 231.881C287.776 231.687 287.338 231.591 286.846 231.591C286.35 231.591 285.906 231.687 285.516 231.881C285.13 232.074 284.825 232.339 284.602 232.676C284.382 233.013 284.274 233.402 284.278 233.841C284.274 234.258 284.374 234.621 284.579 234.932C284.787 235.242 285.085 235.483 285.471 235.653C285.857 235.824 286.316 235.909 286.846 235.909ZM286.846 230.386C287.263 230.386 287.632 230.303 287.954 230.136C288.28 229.97 288.535 229.737 288.721 229.438C288.906 229.138 289.001 228.788 289.005 228.386C289.001 227.992 288.908 227.65 288.727 227.358C288.545 227.062 288.293 226.835 287.971 226.676C287.649 226.513 287.274 226.432 286.846 226.432C286.41 226.432 286.03 226.513 285.704 226.676C285.378 226.835 285.126 227.062 284.948 227.358C284.77 227.65 284.683 227.992 284.687 228.386C284.683 228.788 284.772 229.138 284.954 229.438C285.139 229.737 285.395 229.97 285.721 230.136C286.047 230.303 286.422 230.386 286.846 230.386Z" fill="white"/>
<path d="M32.7095 184.364V196H31.3004V185.841H31.2322L28.3913 187.727V186.295L31.3004 184.364H32.7095ZM39.6925 196.159C39.0258 196.159 38.4254 196.027 37.8913 195.761C37.3572 195.496 36.9292 195.133 36.6072 194.67C36.2853 194.208 36.1091 193.682 36.0788 193.091H37.4425C37.4955 193.617 37.7341 194.053 38.1584 194.398C38.5864 194.739 39.0978 194.909 39.6925 194.909C40.1697 194.909 40.594 194.797 40.9652 194.574C41.3402 194.35 41.6338 194.044 41.8459 193.653C42.0618 193.259 42.1697 192.814 42.1697 192.318C42.1697 191.811 42.058 191.358 41.8345 190.96C41.6148 190.559 41.3118 190.242 40.9254 190.011C40.5391 189.78 40.0978 189.663 39.6016 189.659C39.2455 189.655 38.88 189.71 38.505 189.824C38.13 189.934 37.8213 190.076 37.5788 190.25L36.2607 190.091L36.9652 184.364H43.0107V185.614H38.147L37.7379 189.045H37.8061C38.0447 188.856 38.344 188.699 38.7038 188.574C39.0637 188.449 39.4387 188.386 39.8288 188.386C40.541 188.386 41.1754 188.557 41.7322 188.898C42.2929 189.235 42.7322 189.697 43.0504 190.284C43.3724 190.871 43.5334 191.542 43.5334 192.295C43.5334 193.038 43.3667 193.701 43.0334 194.284C42.7038 194.864 42.2493 195.322 41.6697 195.659C41.0902 195.992 40.4311 196.159 39.6925 196.159Z" fill="white"/>
<path d="M57 178C57 173.582 60.5817 170 65 170H89C93.4183 170 97 173.582 97 178V202C97 206.418 93.4183 210 89 210H65C60.5817 210 57 206.418 57 202V178Z" fill="#B8B5EC"/>
<path d="M73.5845 184.364V196H72.1754V185.841H72.1072L69.2663 187.727V186.295L72.1754 184.364H73.5845ZM80.7947 196.159C80.3175 196.152 79.8402 196.061 79.3629 195.886C78.8857 195.712 78.45 195.419 78.0561 195.006C77.6622 194.589 77.3459 194.027 77.1072 193.318C76.8686 192.606 76.7493 191.712 76.7493 190.636C76.7493 189.606 76.8459 188.693 77.0391 187.898C77.2322 187.098 77.5125 186.426 77.88 185.881C78.2474 185.331 78.6906 184.915 79.2095 184.631C79.7322 184.347 80.3213 184.205 80.9766 184.205C81.6281 184.205 82.2076 184.335 82.7152 184.597C83.2266 184.854 83.6432 185.214 83.9652 185.676C84.2872 186.138 84.4955 186.67 84.5902 187.273H83.2038C83.075 186.75 82.825 186.316 82.4538 185.972C82.0826 185.627 81.5902 185.455 80.9766 185.455C80.075 185.455 79.3648 185.847 78.8459 186.631C78.3307 187.415 78.0713 188.515 78.0675 189.932H78.1584C78.3705 189.61 78.6224 189.335 78.9141 189.108C79.2095 188.877 79.5353 188.699 79.8913 188.574C80.2474 188.449 80.6243 188.386 81.022 188.386C81.6887 188.386 82.2985 188.553 82.8516 188.886C83.4046 189.216 83.8478 189.672 84.1811 190.256C84.5144 190.835 84.6811 191.5 84.6811 192.25C84.6811 192.97 84.5201 193.629 84.1982 194.227C83.8762 194.822 83.4235 195.295 82.8402 195.648C82.2607 195.996 81.5788 196.167 80.7947 196.159ZM80.7947 194.909C81.272 194.909 81.7 194.79 82.0788 194.551C82.4614 194.312 82.7625 193.992 82.9822 193.591C83.2057 193.189 83.3175 192.742 83.3175 192.25C83.3175 191.769 83.2095 191.331 82.9936 190.938C82.7815 190.54 82.4879 190.223 82.1129 189.989C81.7417 189.754 81.3175 189.636 80.8402 189.636C80.4804 189.636 80.1451 189.708 79.8345 189.852C79.5239 189.992 79.2512 190.186 79.0163 190.432C78.7853 190.678 78.6035 190.96 78.4709 191.278C78.3383 191.593 78.272 191.924 78.272 192.273C78.272 192.735 78.38 193.167 78.5959 193.568C78.8156 193.97 79.1148 194.294 79.4936 194.54C79.8762 194.786 80.3099 194.909 80.7947 194.909Z" fill="#4655C8"/>
<path d="M115.006 184.364V196H113.597V185.841H113.529L110.688 187.727V186.295L113.597 184.364H115.006ZM118.717 196L123.921 185.705V185.614H117.921V184.364H125.376V185.682L120.194 196H118.717Z" fill="white"/>
<path d="M155.647 184.364V196H154.238V185.841H154.17L151.329 187.727V186.295L154.238 184.364H155.647ZM162.721 196.159C161.941 196.159 161.251 196.021 160.653 195.744C160.058 195.464 159.594 195.08 159.261 194.591C158.927 194.098 158.763 193.538 158.766 192.909C158.763 192.417 158.859 191.962 159.056 191.545C159.253 191.125 159.522 190.775 159.863 190.494C160.208 190.21 160.592 190.03 161.016 189.955V189.886C160.46 189.742 160.016 189.43 159.687 188.949C159.357 188.464 159.194 187.913 159.198 187.295C159.194 186.705 159.344 186.176 159.647 185.71C159.95 185.244 160.367 184.877 160.897 184.608C161.431 184.339 162.039 184.205 162.721 184.205C163.395 184.205 163.997 184.339 164.528 184.608C165.058 184.877 165.475 185.244 165.778 185.71C166.085 186.176 166.24 186.705 166.244 187.295C166.24 187.913 166.071 188.464 165.738 188.949C165.408 189.43 164.971 189.742 164.425 189.886V189.955C164.846 190.03 165.225 190.21 165.562 190.494C165.899 190.775 166.168 191.125 166.369 191.545C166.569 191.962 166.672 192.417 166.675 192.909C166.672 193.538 166.501 194.098 166.164 194.591C165.831 195.08 165.367 195.464 164.772 195.744C164.181 196.021 163.497 196.159 162.721 196.159ZM162.721 194.909C163.247 194.909 163.702 194.824 164.085 194.653C164.467 194.483 164.763 194.242 164.971 193.932C165.179 193.621 165.285 193.258 165.289 192.841C165.285 192.402 165.172 192.013 164.948 191.676C164.725 191.339 164.42 191.074 164.033 190.881C163.651 190.687 163.213 190.591 162.721 190.591C162.225 190.591 161.781 190.687 161.391 190.881C161.005 191.074 160.7 191.339 160.477 191.676C160.257 192.013 160.149 192.402 160.153 192.841C160.149 193.258 160.249 193.621 160.454 193.932C160.662 194.242 160.96 194.483 161.346 194.653C161.732 194.824 162.191 194.909 162.721 194.909ZM162.721 189.386C163.138 189.386 163.507 189.303 163.829 189.136C164.155 188.97 164.41 188.737 164.596 188.438C164.781 188.138 164.876 187.788 164.88 187.386C164.876 186.992 164.783 186.65 164.602 186.358C164.42 186.062 164.168 185.835 163.846 185.676C163.524 185.513 163.149 185.432 162.721 185.432C162.285 185.432 161.905 185.513 161.579 185.676C161.253 185.835 161.001 186.062 160.823 186.358C160.645 186.65 160.558 186.992 160.562 187.386C160.558 187.788 160.647 188.138 160.829 188.438C161.014 188.737 161.27 188.97 161.596 189.136C161.922 189.303 162.297 189.386 162.721 189.386Z" fill="white"/>
<path d="M196.585 184.364V196H195.175V185.841H195.107L192.266 187.727V186.295L195.175 184.364H196.585ZM203.636 184.205C204.113 184.208 204.59 184.299 205.067 184.477C205.545 184.655 205.98 184.951 206.374 185.364C206.768 185.773 207.085 186.331 207.323 187.04C207.562 187.748 207.681 188.636 207.681 189.705C207.681 190.739 207.583 191.657 207.386 192.46C207.192 193.259 206.912 193.934 206.545 194.483C206.181 195.032 205.738 195.449 205.215 195.733C204.696 196.017 204.109 196.159 203.454 196.159C202.802 196.159 202.221 196.03 201.71 195.773C201.202 195.511 200.785 195.15 200.46 194.688C200.138 194.222 199.931 193.682 199.84 193.068H201.227C201.352 193.602 201.6 194.044 201.971 194.392C202.346 194.737 202.84 194.909 203.454 194.909C204.352 194.909 205.06 194.517 205.579 193.733C206.102 192.949 206.363 191.841 206.363 190.409H206.272C206.06 190.727 205.808 191.002 205.516 191.233C205.225 191.464 204.901 191.642 204.545 191.767C204.189 191.892 203.81 191.955 203.408 191.955C202.742 191.955 202.13 191.79 201.573 191.46C201.02 191.127 200.577 190.67 200.244 190.091C199.914 189.508 199.749 188.841 199.749 188.091C199.749 187.379 199.908 186.727 200.227 186.136C200.549 185.542 200.999 185.068 201.579 184.716C202.162 184.364 202.848 184.193 203.636 184.205ZM203.636 185.455C203.158 185.455 202.728 185.574 202.346 185.812C201.967 186.047 201.666 186.366 201.442 186.767C201.223 187.165 201.113 187.606 201.113 188.091C201.113 188.576 201.219 189.017 201.431 189.415C201.647 189.809 201.941 190.123 202.312 190.358C202.687 190.589 203.113 190.705 203.59 190.705C203.95 190.705 204.285 190.634 204.596 190.494C204.906 190.35 205.177 190.155 205.408 189.909C205.643 189.659 205.827 189.377 205.96 189.062C206.092 188.744 206.158 188.413 206.158 188.068C206.158 187.614 206.049 187.187 205.829 186.79C205.613 186.392 205.314 186.07 204.931 185.824C204.552 185.578 204.121 185.455 203.636 185.455Z" fill="white"/>
<path d="M232.361 196V194.977L236.202 190.773C236.652 190.28 237.024 189.852 237.315 189.489C237.607 189.121 237.823 188.777 237.963 188.455C238.107 188.129 238.179 187.788 238.179 187.432C238.179 187.023 238.08 186.669 237.884 186.369C237.69 186.07 237.425 185.839 237.088 185.676C236.751 185.513 236.372 185.432 235.952 185.432C235.505 185.432 235.115 185.525 234.781 185.71C234.452 185.892 234.196 186.148 234.014 186.477C233.836 186.807 233.747 187.193 233.747 187.636H232.406C232.406 186.955 232.563 186.356 232.878 185.841C233.192 185.326 233.62 184.924 234.162 184.636C234.707 184.348 235.319 184.205 235.997 184.205C236.679 184.205 237.283 184.348 237.81 184.636C238.336 184.924 238.749 185.312 239.048 185.801C239.348 186.29 239.497 186.833 239.497 187.432C239.497 187.86 239.42 188.278 239.264 188.688C239.113 189.093 238.848 189.545 238.469 190.045C238.094 190.542 237.573 191.148 236.906 191.864L234.293 194.659V194.75H239.702V196H232.361ZM245.844 196.159C244.988 196.159 244.259 195.926 243.656 195.46C243.054 194.991 242.594 194.311 242.276 193.42C241.957 192.527 241.798 191.447 241.798 190.182C241.798 188.924 241.957 187.85 242.276 186.96C242.598 186.066 243.06 185.384 243.662 184.915C244.268 184.441 244.995 184.205 245.844 184.205C246.692 184.205 247.418 184.441 248.02 184.915C248.626 185.384 249.088 186.066 249.406 186.96C249.728 187.85 249.889 188.924 249.889 190.182C249.889 191.447 249.73 192.527 249.412 193.42C249.094 194.311 248.634 194.991 248.031 195.46C247.429 195.926 246.7 196.159 245.844 196.159ZM245.844 194.909C246.692 194.909 247.351 194.5 247.821 193.682C248.291 192.864 248.526 191.697 248.526 190.182C248.526 189.174 248.418 188.316 248.202 187.608C247.99 186.9 247.683 186.36 247.281 185.989C246.884 185.617 246.404 185.432 245.844 185.432C245.003 185.432 244.346 185.847 243.872 186.676C243.399 187.502 243.162 188.67 243.162 190.182C243.162 191.189 243.268 192.045 243.48 192.75C243.692 193.455 243.997 193.991 244.395 194.358C244.796 194.725 245.279 194.909 245.844 194.909Z" fill="white"/>
<path d="M274.642 196V194.977L278.483 190.773C278.934 190.28 279.305 189.852 279.597 189.489C279.888 189.121 280.104 188.777 280.244 188.455C280.388 188.129 280.46 187.788 280.46 187.432C280.46 187.023 280.362 186.669 280.165 186.369C279.972 186.07 279.706 185.839 279.369 185.676C279.032 185.513 278.653 185.432 278.233 185.432C277.786 185.432 277.396 185.525 277.062 185.71C276.733 185.892 276.477 186.148 276.295 186.477C276.117 186.807 276.028 187.193 276.028 187.636H274.688C274.688 186.955 274.845 186.356 275.159 185.841C275.473 185.326 275.902 184.924 276.443 184.636C276.989 184.348 277.6 184.205 278.278 184.205C278.96 184.205 279.564 184.348 280.091 184.636C280.617 184.924 281.03 185.312 281.33 185.801C281.629 186.29 281.778 186.833 281.778 187.432C281.778 187.86 281.701 188.278 281.545 188.688C281.394 189.093 281.129 189.545 280.75 190.045C280.375 190.542 279.854 191.148 279.188 191.864L276.574 194.659V194.75H281.983V196H274.642ZM288.42 184.364V196H287.011V185.841H286.943L284.102 187.727V186.295L287.011 184.364H288.42Z" fill="white"/>
<path opacity="0.8" d="M36.0021 155.159C35.2218 155.159 34.5324 155.021 33.9339 154.744C33.3393 154.464 32.8752 154.08 32.5419 153.591C32.2086 153.098 32.0438 152.538 32.0476 151.909C32.0438 151.417 32.1404 150.962 32.3374 150.545C32.5343 150.125 32.8033 149.775 33.1442 149.494C33.4889 149.21 33.8733 149.03 34.2976 148.955V148.886C33.7408 148.742 33.2976 148.43 32.968 147.949C32.6385 147.464 32.4756 146.913 32.4794 146.295C32.4756 145.705 32.6252 145.176 32.9283 144.71C33.2313 144.244 33.648 143.877 34.1783 143.608C34.7124 143.339 35.3203 143.205 36.0021 143.205C36.6764 143.205 37.2786 143.339 37.8089 143.608C38.3393 143.877 38.7559 144.244 39.0589 144.71C39.3658 145.176 39.5211 145.705 39.5249 146.295C39.5211 146.913 39.3525 147.464 39.0192 147.949C38.6896 148.43 38.2521 148.742 37.7067 148.886V148.955C38.1271 149.03 38.5059 149.21 38.843 149.494C39.1802 149.775 39.4491 150.125 39.6499 150.545C39.8506 150.962 39.9529 151.417 39.9567 151.909C39.9529 152.538 39.7824 153.098 39.4453 153.591C39.112 154.08 38.648 154.464 38.0533 154.744C37.4624 155.021 36.7786 155.159 36.0021 155.159ZM36.0021 153.909C36.5286 153.909 36.9832 153.824 37.3658 153.653C37.7483 153.483 38.0438 153.242 38.2521 152.932C38.4605 152.621 38.5665 152.258 38.5703 151.841C38.5665 151.402 38.4529 151.013 38.2294 150.676C38.0059 150.339 37.701 150.074 37.3146 149.881C36.9321 149.687 36.4946 149.591 36.0021 149.591C35.5059 149.591 35.0627 149.687 34.6726 149.881C34.2862 150.074 33.9813 150.339 33.7578 150.676C33.5381 151.013 33.4302 151.402 33.4339 151.841C33.4302 152.258 33.5305 152.621 33.7351 152.932C33.9434 153.242 34.2408 153.483 34.6271 153.653C35.0135 153.824 35.4718 153.909 36.0021 153.909ZM36.0021 148.386C36.4188 148.386 36.7881 148.303 37.1101 148.136C37.4358 147.97 37.6915 147.737 37.8771 147.438C38.0627 147.138 38.1574 146.788 38.1612 146.386C38.1574 145.992 38.0646 145.65 37.8828 145.358C37.701 145.062 37.4491 144.835 37.1271 144.676C36.8052 144.513 36.4302 144.432 36.0021 144.432C35.5665 144.432 35.1858 144.513 34.8601 144.676C34.5343 144.835 34.2824 145.062 34.1044 145.358C33.9264 145.65 33.8393 145.992 33.843 146.386C33.8393 146.788 33.9283 147.138 34.1101 147.438C34.2957 147.737 34.5514 147.97 34.8771 148.136C35.2029 148.303 35.5779 148.386 36.0021 148.386Z" fill="white"/>
<path d="M76.9169 143.205C77.3942 143.208 77.8714 143.299 78.3487 143.477C78.826 143.655 79.2616 143.951 79.6555 144.364C80.0495 144.773 80.3658 145.331 80.6044 146.04C80.843 146.748 80.9624 147.636 80.9624 148.705C80.9624 149.739 80.8639 150.657 80.6669 151.46C80.4737 152.259 80.1934 152.934 79.826 153.483C79.4624 154.032 79.0192 154.449 78.4964 154.733C77.9775 155.017 77.3904 155.159 76.7351 155.159C76.0836 155.159 75.5021 155.03 74.9908 154.773C74.4832 154.511 74.0665 154.15 73.7408 153.688C73.4188 153.222 73.2124 152.682 73.1214 152.068H74.5078C74.6328 152.602 74.8809 153.044 75.2521 153.392C75.6271 153.737 76.1214 153.909 76.7351 153.909C77.6328 153.909 78.3411 153.517 78.8601 152.733C79.3828 151.949 79.6442 150.841 79.6442 149.409H79.5533C79.3411 149.727 79.0893 150.002 78.7976 150.233C78.5059 150.464 78.1821 150.642 77.826 150.767C77.4699 150.892 77.0911 150.955 76.6896 150.955C76.023 150.955 75.4112 150.79 74.8544 150.46C74.3014 150.127 73.8582 149.67 73.5249 149.091C73.1953 148.508 73.0305 147.841 73.0305 147.091C73.0305 146.379 73.1896 145.727 73.5078 145.136C73.8298 144.542 74.2805 144.068 74.8601 143.716C75.4434 143.364 76.129 143.193 76.9169 143.205ZM76.9169 144.455C76.4396 144.455 76.0097 144.574 75.6271 144.812C75.2483 145.047 74.9472 145.366 74.7237 145.767C74.504 146.165 74.3942 146.606 74.3942 147.091C74.3942 147.576 74.5002 148.017 74.7124 148.415C74.9283 148.809 75.2218 149.123 75.593 149.358C75.968 149.589 76.3942 149.705 76.8714 149.705C77.2313 149.705 77.5665 149.634 77.8771 149.494C78.1877 149.35 78.4586 149.155 78.6896 148.909C78.9245 148.659 79.1082 148.377 79.2408 148.062C79.3733 147.744 79.4396 147.413 79.4396 147.068C79.4396 146.614 79.3298 146.187 79.1101 145.79C78.8942 145.392 78.5949 145.07 78.2124 144.824C77.8336 144.578 77.4018 144.455 76.9169 144.455Z" fill="white"/>
<path d="M114.577 143.364V155H113.168V144.841H113.099L110.259 146.727V145.295L113.168 143.364H114.577ZM121.719 155.159C120.863 155.159 120.134 154.926 119.531 154.46C118.929 153.991 118.469 153.311 118.151 152.42C117.832 151.527 117.673 150.447 117.673 149.182C117.673 147.924 117.832 146.85 118.151 145.96C118.473 145.066 118.935 144.384 119.537 143.915C120.143 143.441 120.87 143.205 121.719 143.205C122.567 143.205 123.293 143.441 123.895 143.915C124.501 144.384 124.963 145.066 125.281 145.96C125.603 146.85 125.764 147.924 125.764 149.182C125.764 150.447 125.605 151.527 125.287 152.42C124.969 153.311 124.509 153.991 123.906 154.46C123.304 154.926 122.575 155.159 121.719 155.159ZM121.719 153.909C122.567 153.909 123.226 153.5 123.696 152.682C124.166 151.864 124.401 150.697 124.401 149.182C124.401 148.174 124.293 147.316 124.077 146.608C123.865 145.9 123.558 145.36 123.156 144.989C122.759 144.617 122.279 144.432 121.719 144.432C120.878 144.432 120.221 144.847 119.747 145.676C119.274 146.502 119.037 147.67 119.037 149.182C119.037 150.189 119.143 151.045 119.355 151.75C119.567 152.455 119.872 152.991 120.27 153.358C120.671 153.725 121.154 153.909 121.719 153.909Z" fill="white"/>
<path d="M156.858 143.364V155H155.449V144.841H155.381L152.54 146.727V145.295L155.449 143.364H156.858ZM164.295 143.364V155H162.886V144.841H162.818L159.977 146.727V145.295L162.886 143.364H164.295Z" fill="white"/>
<path d="M196.733 143.364V155H195.324V144.841H195.256L192.415 146.727V145.295L195.324 143.364H196.733ZM200.08 155V153.977L203.92 149.773C204.371 149.28 204.742 148.852 205.034 148.489C205.326 148.121 205.542 147.777 205.682 147.455C205.826 147.129 205.898 146.788 205.898 146.432C205.898 146.023 205.799 145.669 205.602 145.369C205.409 145.07 205.144 144.839 204.807 144.676C204.47 144.513 204.091 144.432 203.67 144.432C203.223 144.432 202.833 144.525 202.5 144.71C202.17 144.892 201.915 145.148 201.733 145.477C201.555 145.807 201.466 146.193 201.466 146.636H200.125C200.125 145.955 200.282 145.356 200.597 144.841C200.911 144.326 201.339 143.924 201.881 143.636C202.426 143.348 203.038 143.205 203.716 143.205C204.398 143.205 205.002 143.348 205.528 143.636C206.055 143.924 206.468 144.312 206.767 144.801C207.066 145.29 207.216 145.833 207.216 146.432C207.216 146.86 207.138 147.278 206.983 147.688C206.831 148.093 206.566 148.545 206.188 149.045C205.812 149.542 205.292 150.148 204.625 150.864L202.011 153.659V153.75H207.42V155H200.08Z" fill="white"/>
<path d="M237.483 143.364V155H236.074V144.841H236.006L233.165 146.727V145.295L236.074 143.364H237.483ZM244.761 155.159C244.011 155.159 243.343 155.03 242.756 154.773C242.172 154.515 241.708 154.157 241.364 153.699C241.023 153.237 240.837 152.701 240.807 152.091H242.239C242.269 152.466 242.398 152.79 242.625 153.062C242.852 153.331 243.15 153.54 243.517 153.688C243.884 153.835 244.292 153.909 244.739 153.909C245.239 153.909 245.682 153.822 246.068 153.648C246.455 153.473 246.758 153.231 246.977 152.92C247.197 152.61 247.307 152.25 247.307 151.841C247.307 151.413 247.201 151.036 246.989 150.71C246.777 150.381 246.466 150.123 246.057 149.938C245.648 149.752 245.148 149.659 244.557 149.659H243.625V148.409H244.557C245.019 148.409 245.424 148.326 245.773 148.159C246.125 147.992 246.4 147.758 246.597 147.455C246.797 147.152 246.898 146.795 246.898 146.386C246.898 145.992 246.811 145.65 246.636 145.358C246.462 145.066 246.216 144.839 245.898 144.676C245.583 144.513 245.212 144.432 244.784 144.432C244.383 144.432 244.004 144.506 243.648 144.653C243.295 144.797 243.008 145.008 242.784 145.284C242.561 145.557 242.439 145.886 242.42 146.273H241.057C241.08 145.663 241.263 145.129 241.608 144.67C241.953 144.208 242.403 143.848 242.96 143.591C243.521 143.333 244.136 143.205 244.807 143.205C245.527 143.205 246.144 143.35 246.659 143.642C247.174 143.93 247.57 144.311 247.847 144.784C248.123 145.258 248.261 145.769 248.261 146.318C248.261 146.973 248.089 147.532 247.744 147.994C247.403 148.456 246.939 148.777 246.352 148.955V149.045C247.087 149.167 247.661 149.479 248.074 149.983C248.487 150.483 248.693 151.102 248.693 151.841C248.693 152.473 248.521 153.042 248.176 153.545C247.835 154.045 247.369 154.439 246.778 154.727C246.188 155.015 245.515 155.159 244.761 155.159Z" fill="white"/>
<path d="M278.444 143.364V155H277.035V144.841H276.967L274.126 146.727V145.295L277.035 143.364H278.444ZM281.518 152.614V151.455L286.631 143.364H287.472V145.159H286.904L283.04 151.273V151.364H289.927V152.614H281.518ZM286.995 155V152.261V151.722V143.364H288.336V155H286.995Z" fill="white"/>
<path d="M73.3608 114V112.977L77.2017 108.773C77.6525 108.28 78.0237 107.852 78.3153 107.489C78.607 107.121 78.8229 106.777 78.9631 106.455C79.107 106.129 79.179 105.788 79.179 105.432C79.179 105.023 79.0805 104.669 78.8835 104.369C78.6903 104.07 78.4252 103.839 78.0881 103.676C77.7509 103.513 77.3722 103.432 76.9517 103.432C76.5047 103.432 76.1146 103.525 75.7812 103.71C75.4517 103.892 75.196 104.148 75.0142 104.477C74.8362 104.807 74.7472 105.193 74.7472 105.636H73.4062C73.4062 104.955 73.5634 104.356 73.8778 103.841C74.1922 103.326 74.6203 102.924 75.1619 102.636C75.7074 102.348 76.3191 102.205 76.9972 102.205C77.679 102.205 78.2831 102.348 78.8097 102.636C79.3362 102.924 79.7491 103.312 80.0483 103.801C80.3475 104.29 80.4972 104.833 80.4972 105.432C80.4972 105.86 80.4195 106.278 80.2642 106.688C80.1127 107.093 79.8475 107.545 79.4688 108.045C79.0938 108.542 78.5729 109.148 77.9062 109.864L75.2926 112.659V112.75H80.7017V114H73.3608Z" fill="white"/>
<path d="M118.043 114.159C117.293 114.159 116.624 114.03 116.037 113.773C115.454 113.515 114.99 113.157 114.645 112.699C114.304 112.237 114.118 111.701 114.088 111.091H115.52C115.55 111.466 115.679 111.79 115.906 112.062C116.134 112.331 116.431 112.54 116.798 112.688C117.166 112.835 117.573 112.909 118.02 112.909C118.52 112.909 118.963 112.822 119.349 112.648C119.736 112.473 120.039 112.231 120.259 111.92C120.478 111.61 120.588 111.25 120.588 110.841C120.588 110.413 120.482 110.036 120.27 109.71C120.058 109.381 119.747 109.123 119.338 108.938C118.929 108.752 118.429 108.659 117.838 108.659H116.906V107.409H117.838C118.3 107.409 118.705 107.326 119.054 107.159C119.406 106.992 119.681 106.758 119.878 106.455C120.079 106.152 120.179 105.795 120.179 105.386C120.179 104.992 120.092 104.65 119.918 104.358C119.743 104.066 119.497 103.839 119.179 103.676C118.865 103.513 118.493 103.432 118.065 103.432C117.664 103.432 117.285 103.506 116.929 103.653C116.577 103.797 116.289 104.008 116.065 104.284C115.842 104.557 115.721 104.886 115.702 105.273H114.338C114.361 104.663 114.545 104.129 114.889 103.67C115.234 103.208 115.685 102.848 116.241 102.591C116.802 102.333 117.418 102.205 118.088 102.205C118.808 102.205 119.425 102.35 119.94 102.642C120.455 102.93 120.851 103.311 121.128 103.784C121.404 104.258 121.543 104.769 121.543 105.318C121.543 105.973 121.37 106.532 121.026 106.994C120.685 107.456 120.221 107.777 119.634 107.955V108.045C120.368 108.167 120.942 108.479 121.355 108.983C121.768 109.483 121.974 110.102 121.974 110.841C121.974 111.473 121.802 112.042 121.457 112.545C121.116 113.045 120.651 113.439 120.06 113.727C119.469 114.015 118.796 114.159 118.043 114.159Z" fill="white"/>
<path d="M154.799 111.614V110.455L159.913 102.364H160.754V104.159H160.185L156.322 110.273V110.364H163.208V111.614H154.799ZM160.276 114V111.261V110.722V102.364H161.617V114H160.276Z" fill="white"/>
<path d="M199.974 114.159C199.307 114.159 198.707 114.027 198.173 113.761C197.638 113.496 197.21 113.133 196.888 112.67C196.567 112.208 196.39 111.682 196.36 111.091H197.724C197.777 111.617 198.015 112.053 198.44 112.398C198.868 112.739 199.379 112.909 199.974 112.909C200.451 112.909 200.875 112.797 201.246 112.574C201.621 112.35 201.915 112.044 202.127 111.653C202.343 111.259 202.451 110.814 202.451 110.318C202.451 109.811 202.339 109.358 202.116 108.96C201.896 108.559 201.593 108.242 201.207 108.011C200.82 107.78 200.379 107.663 199.883 107.659C199.527 107.655 199.161 107.71 198.786 107.824C198.411 107.934 198.103 108.076 197.86 108.25L196.542 108.091L197.246 102.364H203.292V103.614H198.428L198.019 107.045H198.087C198.326 106.856 198.625 106.699 198.985 106.574C199.345 106.449 199.72 106.386 200.11 106.386C200.822 106.386 201.457 106.557 202.013 106.898C202.574 107.235 203.013 107.697 203.332 108.284C203.654 108.871 203.815 109.542 203.815 110.295C203.815 111.038 203.648 111.701 203.315 112.284C202.985 112.864 202.531 113.322 201.951 113.659C201.371 113.992 200.712 114.159 199.974 114.159Z" fill="white"/>
<path d="M241.076 114.159C240.599 114.152 240.121 114.061 239.644 113.886C239.167 113.712 238.731 113.419 238.337 113.006C237.943 112.589 237.627 112.027 237.388 111.318C237.15 110.606 237.031 109.712 237.031 108.636C237.031 107.606 237.127 106.693 237.32 105.898C237.513 105.098 237.794 104.426 238.161 103.881C238.529 103.331 238.972 102.915 239.491 102.631C240.013 102.347 240.603 102.205 241.258 102.205C241.909 102.205 242.489 102.335 242.996 102.597C243.508 102.854 243.924 103.214 244.246 103.676C244.568 104.138 244.777 104.67 244.871 105.273H243.485C243.356 104.75 243.106 104.316 242.735 103.972C242.364 103.627 241.871 103.455 241.258 103.455C240.356 103.455 239.646 103.847 239.127 104.631C238.612 105.415 238.353 106.515 238.349 107.932H238.44C238.652 107.61 238.904 107.335 239.195 107.108C239.491 106.877 239.817 106.699 240.173 106.574C240.529 106.449 240.906 106.386 241.303 106.386C241.97 106.386 242.58 106.553 243.133 106.886C243.686 107.216 244.129 107.672 244.462 108.256C244.796 108.835 244.962 109.5 244.962 110.25C244.962 110.97 244.801 111.629 244.479 112.227C244.157 112.822 243.705 113.295 243.121 113.648C242.542 113.996 241.86 114.167 241.076 114.159ZM241.076 112.909C241.553 112.909 241.981 112.79 242.36 112.551C242.743 112.312 243.044 111.992 243.263 111.591C243.487 111.189 243.599 110.742 243.599 110.25C243.599 109.769 243.491 109.331 243.275 108.938C243.063 108.54 242.769 108.223 242.394 107.989C242.023 107.754 241.599 107.636 241.121 107.636C240.762 107.636 240.426 107.708 240.116 107.852C239.805 107.992 239.532 108.186 239.298 108.432C239.067 108.678 238.885 108.96 238.752 109.278C238.62 109.593 238.553 109.924 238.553 110.273C238.553 110.735 238.661 111.167 238.877 111.568C239.097 111.97 239.396 112.294 239.775 112.54C240.157 112.786 240.591 112.909 241.076 112.909Z" fill="white"/>
<path d="M278.998 114L284.202 103.705V103.614H278.202V102.364H285.657V103.682L280.475 114H278.998Z" fill="white"/>
<path d="M37.5767 102.364V114H36.1676V103.841H36.0994L33.2585 105.727V104.295L36.1676 102.364H37.5767Z" fill="white"/>
</svg>
