<svg width="270" height="117" viewBox="0 0 270 117" fill="none" xmlns="http://www.w3.org/2000/svg">
<path d="M92.7842 71.052V65.854H112.196V71.052H92.7842ZM119.288 71.052V65.854H138.7V71.052H119.288ZM150.852 82L168.93 49.8H174.956L156.878 82H150.852ZM173.852 82.552C172.349 82.552 170.985 82.23 169.758 81.586C168.562 80.9113 167.611 79.9607 166.906 78.734C166.201 77.4767 165.848 76.0047 165.848 74.318C165.848 72.6007 166.201 71.1287 166.906 69.902C167.611 68.6753 168.562 67.74 169.758 67.096C170.985 66.4213 172.349 66.084 173.852 66.084C175.355 66.084 176.704 66.4213 177.9 67.096C179.096 67.74 180.047 68.6753 180.752 69.902C181.457 71.1287 181.81 72.6007 181.81 74.318C181.81 76.0047 181.457 77.4767 180.752 78.734C180.047 79.9607 179.096 80.9113 177.9 81.586C176.704 82.23 175.355 82.552 173.852 82.552ZM173.806 78.274C174.419 78.274 174.956 78.1207 175.416 77.814C175.876 77.5073 176.244 77.0627 176.52 76.48C176.796 75.8973 176.934 75.1767 176.934 74.318C176.934 73.4287 176.796 72.6927 176.52 72.11C176.275 71.4967 175.907 71.0367 175.416 70.73C174.956 70.4233 174.419 70.27 173.806 70.27C173.223 70.27 172.687 70.4233 172.196 70.73C171.736 71.0367 171.368 71.4967 171.092 72.11C170.816 72.6927 170.678 73.4287 170.678 74.318C170.678 75.1767 170.816 75.8973 171.092 76.48C171.368 77.0627 171.736 77.5073 172.196 77.814C172.687 78.1207 173.223 78.274 173.806 78.274ZM152.186 65.762C150.714 65.762 149.365 65.4247 148.138 64.75C146.942 64.0753 145.976 63.1247 145.24 61.898C144.535 60.6713 144.182 59.2147 144.182 57.528C144.182 55.78 144.535 54.308 145.24 53.112C145.976 51.8853 146.942 50.9347 148.138 50.26C149.365 49.5853 150.729 49.248 152.232 49.248C153.735 49.248 155.069 49.5853 156.234 50.26C157.43 50.9347 158.381 51.8853 159.086 53.112C159.822 54.308 160.19 55.78 160.19 57.528C160.19 59.2147 159.822 60.6713 159.086 61.898C158.381 63.1247 157.43 64.0753 156.234 64.75C155.038 65.4247 153.689 65.762 152.186 65.762ZM152.186 61.484C152.769 61.484 153.29 61.3307 153.75 61.024C154.241 60.7173 154.624 60.2727 154.9 59.69C155.176 59.1073 155.314 58.3867 155.314 57.528C155.314 56.608 155.176 55.8567 154.9 55.274C154.624 54.6913 154.241 54.2467 153.75 53.94C153.29 53.6333 152.769 53.48 152.186 53.48C151.603 53.48 151.067 53.6333 150.576 53.94C150.116 54.2467 149.748 54.7067 149.472 55.32C149.196 55.9027 149.058 56.6387 149.058 57.528C149.058 58.3867 149.196 59.1073 149.472 59.69C149.748 60.2727 150.116 60.7173 150.576 61.024C151.067 61.3307 151.603 61.484 152.186 61.484Z" fill="black"/>
<path d="M86.0214 111.24C84.6614 111.24 83.4814 110.94 82.4814 110.34C81.4947 109.727 80.7347 108.88 80.2014 107.8C79.6681 106.707 79.4014 105.44 79.4014 104C79.4014 102.56 79.6681 101.3 80.2014 100.22C80.7347 99.1267 81.4947 98.28 82.4814 97.68C83.4814 97.0667 84.6614 96.76 86.0214 96.76C87.6214 96.76 88.9214 97.14 89.9214 97.9C90.9214 98.66 91.5614 99.7333 91.8414 101.12H89.9814C89.7681 100.253 89.3347 99.56 88.6814 99.04C88.0281 98.5067 87.1414 98.24 86.0214 98.24C85.0214 98.24 84.1547 98.4733 83.4214 98.94C82.6881 99.3933 82.1214 100.053 81.7214 100.92C81.3214 101.773 81.1214 102.8 81.1214 104C81.1214 105.2 81.3214 106.233 81.7214 107.1C82.1214 107.953 82.6881 108.613 83.4214 109.08C84.1547 109.533 85.0214 109.76 86.0214 109.76C87.1414 109.76 88.0281 109.507 88.6814 109C89.3347 108.48 89.7681 107.793 89.9814 106.94H91.8414C91.5614 108.287 90.9214 109.34 89.9214 110.1C88.9214 110.86 87.6214 111.24 86.0214 111.24ZM98.6773 111.24C97.744 111.24 96.904 111.027 96.1573 110.6C95.4107 110.16 94.824 109.547 94.3973 108.76C93.9707 107.96 93.7573 107.033 93.7573 105.98C93.7573 104.9 93.9707 103.967 94.3973 103.18C94.8373 102.38 95.4307 101.767 96.1773 101.34C96.9373 100.9 97.784 100.68 98.7173 100.68C99.6773 100.68 100.524 100.9 101.257 101.34C102.004 101.767 102.591 102.38 103.017 103.18C103.457 103.967 103.677 104.893 103.677 105.96C103.677 107.027 103.457 107.96 103.017 108.76C102.577 109.547 101.984 110.16 101.237 110.6C100.491 111.027 99.6373 111.24 98.6773 111.24ZM98.6973 109.8C99.2707 109.8 99.804 109.66 100.297 109.38C100.791 109.087 101.191 108.653 101.497 108.08C101.804 107.507 101.957 106.8 101.957 105.96C101.957 105.107 101.804 104.4 101.497 103.84C101.204 103.267 100.811 102.84 100.317 102.56C99.8373 102.267 99.304 102.12 98.7173 102.12C98.1573 102.12 97.624 102.267 97.1173 102.56C96.624 102.84 96.224 103.267 95.9173 103.84C95.624 104.4 95.4773 105.107 95.4773 105.96C95.4773 106.8 95.624 107.507 95.9173 108.08C96.224 108.653 96.6173 109.087 97.0973 109.38C97.5907 109.66 98.124 109.8 98.6973 109.8ZM106.033 111V100.92H107.553L107.653 102.36C107.973 101.84 108.399 101.433 108.933 101.14C109.479 100.833 110.073 100.68 110.713 100.68C111.233 100.68 111.699 100.753 112.113 100.9C112.539 101.033 112.913 101.247 113.233 101.54C113.553 101.82 113.813 102.18 114.013 102.62C114.359 102.007 114.833 101.533 115.433 101.2C116.046 100.853 116.699 100.68 117.393 100.68C118.166 100.68 118.839 100.84 119.413 101.16C119.999 101.467 120.446 101.94 120.753 102.58C121.073 103.207 121.233 104.007 121.233 104.98V111H119.573V105.16C119.573 104.147 119.366 103.387 118.953 102.88C118.539 102.373 117.959 102.12 117.213 102.12C116.693 102.12 116.226 102.26 115.813 102.54C115.399 102.807 115.073 103.2 114.833 103.72C114.593 104.24 114.473 104.88 114.473 105.64V111H112.793V105.16C112.793 104.147 112.586 103.387 112.173 102.88C111.759 102.373 111.173 102.12 110.413 102.12C109.906 102.12 109.446 102.26 109.033 102.54C108.633 102.807 108.313 103.2 108.073 103.72C107.833 104.24 107.713 104.88 107.713 105.64V111H106.033ZM123.845 115.4V100.92H125.365L125.505 102.56C125.719 102.24 125.992 101.94 126.325 101.66C126.659 101.367 127.059 101.133 127.525 100.96C127.992 100.773 128.525 100.68 129.125 100.68C130.112 100.68 130.965 100.913 131.685 101.38C132.419 101.847 132.985 102.48 133.385 103.28C133.799 104.067 134.005 104.967 134.005 105.98C134.005 106.993 133.799 107.9 133.385 108.7C132.985 109.487 132.419 110.107 131.685 110.56C130.952 111.013 130.092 111.24 129.105 111.24C128.292 111.24 127.572 111.073 126.945 110.74C126.332 110.407 125.859 109.94 125.525 109.34V115.4H123.845ZM128.925 109.78C129.579 109.78 130.159 109.62 130.665 109.3C131.172 108.98 131.565 108.54 131.845 107.98C132.139 107.407 132.285 106.733 132.285 105.96C132.285 105.2 132.139 104.533 131.845 103.96C131.565 103.387 131.172 102.94 130.665 102.62C130.159 102.3 129.579 102.14 128.925 102.14C128.259 102.14 127.672 102.3 127.165 102.62C126.659 102.94 126.265 103.387 125.985 103.96C125.705 104.533 125.565 105.2 125.565 105.96C125.565 106.733 125.705 107.407 125.985 107.98C126.265 108.54 126.659 108.98 127.165 109.3C127.672 109.62 128.259 109.78 128.925 109.78ZM136.365 111V96.6H138.045V111H136.365ZM145.238 111.24C144.291 111.24 143.451 111.02 142.718 110.58C141.998 110.14 141.431 109.527 141.018 108.74C140.605 107.94 140.398 107.013 140.398 105.96C140.398 104.893 140.598 103.967 140.998 103.18C141.411 102.393 141.985 101.78 142.718 101.34C143.465 100.9 144.318 100.68 145.278 100.68C146.265 100.68 147.098 100.9 147.778 101.34C148.471 101.78 148.998 102.36 149.358 103.08C149.731 103.787 149.918 104.567 149.918 105.42C149.918 105.553 149.918 105.693 149.918 105.84C149.918 105.987 149.911 106.153 149.898 106.34H141.658V105.04H148.278C148.238 104.12 147.931 103.4 147.358 102.88C146.798 102.36 146.091 102.1 145.238 102.1C144.665 102.1 144.131 102.233 143.638 102.5C143.158 102.753 142.771 103.133 142.478 103.64C142.185 104.133 142.038 104.753 142.038 105.5V106.06C142.038 106.887 142.185 107.58 142.478 108.14C142.785 108.7 143.178 109.12 143.658 109.4C144.151 109.68 144.678 109.82 145.238 109.82C145.945 109.82 146.525 109.667 146.978 109.36C147.445 109.04 147.778 108.613 147.978 108.08H149.638C149.478 108.68 149.198 109.22 148.798 109.7C148.398 110.18 147.898 110.56 147.298 110.84C146.711 111.107 146.025 111.24 145.238 111.24ZM155.813 111C155.213 111 154.693 110.907 154.253 110.72C153.813 110.533 153.473 110.22 153.233 109.78C153.006 109.327 152.893 108.72 152.893 107.96V102.34H151.133V100.92H152.893L153.113 98.48H154.573V100.92H157.493V102.34H154.573V107.96C154.573 108.587 154.7 109.013 154.953 109.24C155.206 109.453 155.653 109.56 156.293 109.56H157.373V111H155.813ZM162.965 111.24C162.152 111.24 161.472 111.1 160.925 110.82C160.378 110.527 159.972 110.147 159.705 109.68C159.438 109.2 159.305 108.68 159.305 108.12C159.305 107.44 159.478 106.867 159.825 106.4C160.185 105.92 160.685 105.56 161.325 105.32C161.978 105.067 162.745 104.94 163.625 104.94H166.285C166.285 104.313 166.185 103.793 165.985 103.38C165.798 102.953 165.518 102.633 165.145 102.42C164.785 102.207 164.332 102.1 163.785 102.1C163.145 102.1 162.592 102.26 162.125 102.58C161.658 102.9 161.372 103.373 161.265 104H159.545C159.625 103.28 159.865 102.68 160.265 102.2C160.678 101.707 161.198 101.333 161.825 101.08C162.452 100.813 163.105 100.68 163.785 100.68C164.718 100.68 165.492 100.853 166.105 101.2C166.732 101.533 167.198 102.007 167.505 102.62C167.812 103.22 167.965 103.933 167.965 104.76V111H166.465L166.365 109.22C166.232 109.5 166.058 109.767 165.845 110.02C165.645 110.26 165.405 110.473 165.125 110.66C164.845 110.833 164.525 110.973 164.165 111.08C163.818 111.187 163.418 111.24 162.965 111.24ZM163.225 109.82C163.692 109.82 164.112 109.727 164.485 109.54C164.872 109.34 165.198 109.073 165.465 108.74C165.732 108.393 165.932 108.013 166.065 107.6C166.212 107.187 166.285 106.753 166.285 106.3V106.24H163.765C163.112 106.24 162.585 106.32 162.185 106.48C161.785 106.627 161.498 106.84 161.325 107.12C161.152 107.387 161.065 107.693 161.065 108.04C161.065 108.4 161.145 108.713 161.305 108.98C161.478 109.247 161.725 109.453 162.045 109.6C162.378 109.747 162.772 109.82 163.225 109.82ZM175.004 111.24C174.031 111.24 173.177 111.013 172.444 110.56C171.711 110.093 171.144 109.46 170.744 108.66C170.344 107.86 170.144 106.953 170.144 105.94C170.144 104.927 170.344 104.027 170.744 103.24C171.144 102.44 171.711 101.813 172.444 101.36C173.191 100.907 174.051 100.68 175.024 100.68C175.851 100.68 176.571 100.847 177.184 101.18C177.811 101.513 178.291 101.98 178.624 102.58V96.6H180.304V111H178.784L178.644 109.34C178.431 109.673 178.157 109.987 177.824 110.28C177.491 110.56 177.091 110.793 176.624 110.98C176.157 111.153 175.617 111.24 175.004 111.24ZM175.204 109.78C175.871 109.78 176.457 109.62 176.964 109.3C177.471 108.98 177.864 108.54 178.144 107.98C178.424 107.407 178.564 106.733 178.564 105.96C178.564 105.2 178.424 104.533 178.144 103.96C177.864 103.387 177.471 102.94 176.964 102.62C176.457 102.3 175.871 102.14 175.204 102.14C174.551 102.14 173.971 102.3 173.464 102.62C172.957 102.94 172.564 103.387 172.284 103.96C172.004 104.533 171.864 105.2 171.864 105.96C171.864 106.733 172.004 107.407 172.284 107.98C172.564 108.54 172.957 108.98 173.464 109.3C173.971 109.62 174.551 109.78 175.204 109.78ZM187.603 111.24C186.67 111.24 185.83 111.027 185.083 110.6C184.336 110.16 183.75 109.547 183.323 108.76C182.896 107.96 182.683 107.033 182.683 105.98C182.683 104.9 182.896 103.967 183.323 103.18C183.763 102.38 184.356 101.767 185.103 101.34C185.863 100.9 186.71 100.68 187.643 100.68C188.603 100.68 189.45 100.9 190.183 101.34C190.93 101.767 191.516 102.38 191.943 103.18C192.383 103.967 192.603 104.893 192.603 105.96C192.603 107.027 192.383 107.96 191.943 108.76C191.503 109.547 190.91 110.16 190.163 110.6C189.416 111.027 188.563 111.24 187.603 111.24ZM187.623 109.8C188.196 109.8 188.73 109.66 189.223 109.38C189.716 109.087 190.116 108.653 190.423 108.08C190.73 107.507 190.883 106.8 190.883 105.96C190.883 105.107 190.73 104.4 190.423 103.84C190.13 103.267 189.736 102.84 189.243 102.56C188.763 102.267 188.23 102.12 187.643 102.12C187.083 102.12 186.55 102.267 186.043 102.56C185.55 102.84 185.15 103.267 184.843 103.84C184.55 104.4 184.403 105.107 184.403 105.96C184.403 106.8 184.55 107.507 184.843 108.08C185.15 108.653 185.543 109.087 186.023 109.38C186.516 109.66 187.05 109.8 187.623 109.8Z" fill="#757575"/>
<rect width="270" height="30" rx="15" fill="#D9D9D9"/>
<rect width="52" height="30" rx="15" fill="url(#paint0_linear_81_243)"/>
<defs>
<linearGradient id="paint0_linear_81_243" x1="0" y1="15" x2="52" y2="15" gradientUnits="userSpaceOnUse">
<stop stop-color="#6F69D3"/>
<stop offset="0.9375" stop-color="#4655C8"/>
</linearGradient>
</defs>
</svg>
